<?xml version="1.0" encoding="utf-8"?>
<!-- Generator: Adobe Illustrator 25.2.3, SVG Export Plug-In . SVG Version: 6.00 Build 0)  -->
<svg version="1.1" id="Layer_1" xmlns="http://www.w3.org/2000/svg" xmlns:xlink="http://www.w3.org/1999/xlink" x="0px" y="0px"
	 viewBox="0 0 997.8 878.5" style="enable-background:new 0 0 997.8 878.5;" xml:space="preserve">
<style type="text/css">
	.st0{fill:#D4EAE7;}
	.st1{fill:none;}
	.st2{fill:#F39776;}
	.st3{fill:#FFF8DC;}
	.st4{fill:#003F33;}
	.st5{fill:#2E0D22;}
	.st6{fill:#D46566;}
	.st7{fill:#3C7168;}
</style>
<g id="Layer_2_1_">
	<g id="Capa_1">
		<path class="st0" d="M504.3,231.6h239.8l0,0v265.3c0,110.4-89.5,199.9-199.9,199.9H197.4l0,0V538.5
			C197.4,369,334.8,231.6,504.3,231.6L504.3,231.6L504.3,231.6z"/>
		<path class="st1" d="M642.2,543.9c0,0.2,0,0.4,0,0.6c-0.5,19.2-2.5,38.4-5.9,57.3c-0.7,3.9-1.4,7.7-2.2,11.5c3.2,1.6,6.8,2,10.2,1
			c4.3-1.2,8.1-3.8,11.7-6.4c13.9-10.2,26.9-21.7,38.6-34.3c5.4-5.8,10.5-11.8,15.9-17.6c-1.3-0.2-2.6-0.4-4-0.6
			c-2.8-0.5-5.8-1.2-7.8-2.9c-2.2-1.8-2.6-4.6-2-7.3c1.1-4.9,3.1-3.9-0.2-8.4c-2.8-1.4-7.9-8-9.3-9.6c-4.8-6-10-11.6-15.6-16.9
			c-3.6-3.5-8-6.9-11.4-10.6c-0.4-0.4-0.9-0.8-1.3-1.2c-5.7-5-11.7-9.9-17.8-14.5l-0.2,0.2c-0.1,0.1-0.2,0.2-0.2,0.3
			c0.5,4.9,0.8,9.7,1,14.6C642.4,514,642.2,529,642.2,543.9z"/>
		<path class="st1" d="M513.2,168.9c0.6,0.3,1.1,0.7,1.7,1l1.8,0.1C515.5,169.6,514.4,169.3,513.2,168.9z"/>
		<path class="st1" d="M337.6,309.8c0.2,0.1,0.4,0.3,0.6,0.4c2.1,1.5,3.2,4.5,1.9,6.7c1.9-0.6,3.8-0.9,5.8-0.9
			c0.4,0,0.7,0.1,1.1,0.1c2.4,0.4,4.6,2.6,4.2,5c-0.1,0.7-0.5,1.5-0.2,2.2c0.3,0.7,0.9,1.2,1.5,1.4c3.8,2.1,7.6,3.9,11.6,5.4
			c5.7,2.3,11.6,4.1,17.5,6c9.9,3.1,19.9,6.2,30.1,8c7.7,1.3,15.5,1.9,23.2,3.6c6.5,1.5,12.7,3.8,18.6,6.9c3.3,1.7,6.5,3.7,9.6,5.9
			c1.4,1,2.7,2,4,3.1c5.5,4.5,9.6,8.3,11.8,15.2c0.9,3,1.6,6,2,9.1c7.7-12.5,7.9-30.2-0.3-42.6c-7.7,4-16.5,5.7-25.1,4.8
			c-14.5-1.4-20.4-19-25.9-30.4c-0.1-0.2-0.2-0.4-0.3-0.6c-3.3-0.2-6.5-0.8-9.7-1.8c-5.3-1.7-8.9-5.5-12.3-9.8
			c-1.7-2.1-3.2-4.3-4.5-6.7c-12.4-2.3-25.9-8.5-38.2-5.6c-11.7,2.8-22.8,7.5-33.2,13.3C333.5,308.6,335.7,308.7,337.6,309.8z"/>
		<path class="st2" d="M304.5,307.5c-1.3-0.2-2.6-0.4-3.9-0.6c3.5,1.7,7,3.4,10.4,5.2c1.9-0.5,3.7-0.9,5.6-1.3
			C312.7,309.3,308.6,308.2,304.5,307.5z"/>
		<path class="st2" d="M168,423c-1.9-2.2-3.7-4.5-5.4-6.9c3.5,6,7.9,11.1,12.7,13.5C172.6,427.7,170.2,425.5,168,423z"/>
		<path class="st2" d="M276.4,297.8c3.6,1,7.2,2.1,10.6,3.4c6.3-0.2,12.6,0.2,18.8,1.3c7,1.3,13.7,3.6,20.1,6.6c1-0.1,2-0.3,3-0.4
			c0.8-0.1,1.5-0.1,2.3-0.2c10.5-5.8,21.6-10.6,33.2-13.3c12.3-2.9,25.9,3.3,38.2,5.6c-6.8-12-8.8-27.1-5.4-40.2
			c0.6-2.2,1.4-4.4,2.5-6.4c-41.8,1.6-82.9,4.7-121.9,21.4c-5.8,2.5-11.6,5-17.1,8.1c-5.7,3.2-11.2,7.4-13.9,13.4
			c-0.5,1.2-0.9,2.4-1,3.7c0,0.1,0,0.3,0,0.4C249.2,290.7,267.1,295.4,276.4,297.8z"/>
		<path class="st3" d="M404.6,283.5c2.5,11.1,9.1,25.5,21.3,28.1c-1.3-3.1-2.5-6.3-3.7-9.5c-5.1-2.9-8.6-8.4-10.4-14.2
			c-1.9-6.3-2-13-0.3-19.3c0.5-1.8,1.2-3.6,2.1-5.2c-0.4-4-0.7-8.3-0.9-12.6C404,258.9,402,272,404.6,283.5z"/>
		<path class="st3" d="M402.8,301c1.3,2.4,2.8,4.6,4.5,6.7c3.5,4.3,7.1,8.1,12.3,9.8c3.1,1,6.4,1.7,9.7,1.8
			c-0.9-1.8-1.7-3.7-2.5-5.5c-5.2-0.8-9.8-3.6-13.4-7.5c-3.8-4.2-6.4-9.3-8.4-14.5c-2.2-5.7-3.6-11.9-3.6-18
			c0-9.7,3.8-19.4,11.3-25.6c0-0.7,0-1.3,0-2c-0.2-0.1-0.4-0.2-0.6-0.4c-1-1-1-2.6,0-3.6c0.2-0.2,0.5-0.4,0.7-0.6v0
			c-5.6,2.7-10.1,7.2-13,12.7c-1.1,2-1.9,4.2-2.5,6.4C394,273.9,396.1,289,402.8,301z"/>
		<path class="st4" d="M411.9,287.9c1.7,5.7,5.3,11.2,10.4,14.2c-3.5-10-6-20.4-7.5-30.8c-0.4-2.5-0.7-5.1-1-7.8
			c-0.9,1.7-1.6,3.4-2.1,5.2C409.9,274.9,410,281.6,411.9,287.9z"/>
		<path class="st5" d="M404.6,283.5c-2.6-11.4-0.6-24.6,8.2-32.7c0-0.9,0-1.7,0-2.6c-7.6,6.2-11.3,15.9-11.3,25.6
			c0,6.2,1.4,12.3,3.6,18c2,5.2,4.6,10.4,8.4,14.5c3.5,3.9,8.2,6.7,13.4,7.5c-0.3-0.7-0.6-1.5-0.9-2.2
			C413.7,309,407.1,294.5,404.6,283.5z"/>
		<path class="st2" d="M253.7,330.1c1.6,2.4,3.4,4.7,5.4,6.9c2.2,2.5,4.7,4.7,7.3,6.6c1.2,0.9,2.4,1.7,3.7,2.6
			c1.1-3.5,2.7-6.8,4.7-9.8c4.5-6.8,10.5-12.4,17.5-16.6c5.8-3.4,12.1-6,18.7-7.7c-3.4-1.8-6.9-3.6-10.4-5.2
			c-6.5-0.7-13.1-0.8-19.6-0.2c-3.3,0.2-3.2-4.8,0-5.1c2-0.2,4.1-0.3,6.1-0.3c-3.5-1.3-7-2.4-10.6-3.4c-9.3-2.5-27.2-7.2-30.5,3.5
			c-0.3,0.9-0.4,1.8-0.5,2.7c-0.1,1.8,0.7,7.9,1.1,9.6C247.7,319.5,250.3,325.1,253.7,330.1z"/>
		<path class="st6" d="M316.6,310.8c3.1-0.6,6.2-1.2,9.4-1.6c-6.4-3.1-13.2-5.3-20.1-6.6c-6.2-1.1-12.5-1.5-18.8-1.3
			c-2,0-4.1,0.2-6.1,0.3c-3.2,0.2-3.3,5.3,0,5.1c6.5-0.6,13.1-0.5,19.6,0.2c1.3,0.2,2.6,0.3,3.9,0.6
			C308.6,308.2,312.7,309.3,316.6,310.8z"/>
		<path class="st2" d="M775.1,536.2c1.1,0.8,2.1,1.7,3.1,2.6c-0.5-0.6-0.9-1.3-1.4-1.9l-1.8-0.8L775.1,536.2z"/>
		<path class="st3" d="M739.8,487.1l-0.6-0.7l0.1,0.1C739.4,486.7,739.6,486.9,739.8,487.1z"/>
		<path class="st3" d="M743.1,491l1.1,1.2L743.1,491z"/>
		<path class="st3" d="M584.6,563.3c0.1-1.8-0.3-4.5,0-6.8c0.1-1,0.4-1.9,0.9-2.7c0.6-0.8,1.6-1.4,2.7-1.4c0.7,0,1.4,0.1,2,0.4
			c1.6,0.5,3.2,0.7,4.8,1.2c3.5,1,6.9,2.4,10.4,3.7l12.7,5c1.1,0.3,2.1,0.9,2.9,1.7c1.3,1.4,1.3,3.5,1.3,5.4
			c-0.1,10.3-0.3,20.5-0.6,30.8c0,0.4,0,0.9,0,1.3c4.9,0,9.8,0,14.7-0.1c3.4-18.9,5.4-38.1,5.9-57.3c-19.4-1-38.8-2.1-58.2-3.1
			c-2.3,4.9-4.6,9.7-7.1,14.5c-7.9,15.2-17.1,29.7-27.5,43.3c8,0.6,16,1.1,24,1.5c0.2-0.8,0.4-1.6,0.7-2.4c0.2-0.8,0.5-1.5,1-2.1
			c0.7-0.8,1.9-1,3-1.2c1.8-0.3,3.6-0.6,5.5-0.9l0.5-13.1C584.1,575,584.3,569.1,584.6,563.3z"/>
		<path class="st3" d="M566.4,650.8c-20.3-1.5-40.5-4.3-60.4-8.4c-3.7,2.8-7.5,5.4-11.4,8c-2.7,1.8-5.3-2.6-2.6-4.4
			c2.5-1.6,4.9-3.3,7.3-5c-18.5-4.1-36.7-9.4-54.6-15.7c-3,6.1-5.8,12.3-7.5,18.7c-2.1,7.9,61.9,26.5,68.8,28
			c25.8,5.6,52.4,6.3,78.5,2.3c6.5-1,16.9-1.8,24.9-4.5c3.2-1.1,6.1-2.5,8.2-4.4c3.5-3.2,5.8-8.5,7.5-14.2
			C605.5,652.4,585.9,652.2,566.4,650.8z"/>
		<path class="st3" d="M758.3,514.4c0.1,0.2,0.3,0.5,0.3,0.7c0.3,1.2-0.4,2.9-1.8,3.1c-19,2.8-37.1,9.8-53.1,20.6
			c-2,1.3-3.8-0.6-3.7-2.5c-0.8,0.5-1.7,0.9-2.6,1c-0.4,0-0.7-0.1-1-0.3c3.3,4.5,1.3,3.5,0.2,8.4c-0.6,2.6-0.2,5.4,2,7.3
			c2,1.7,4.9,2.4,7.8,2.9c1.4,0.2,2.7,0.4,4,0.6c2.5-2.7,5.1-5.4,7.7-8c7.2-7,16.7-16.1,26.7-18.3c10.3-2.2,21.6,0.2,30,6.3l1.8,0.8
			c2.9,1.2,5.5,1.9,6.5-2.6c0.8-3.5,0.7-7.1-0.4-10.5c-0.7-2.3-1.9-4.5-3.8-6.1s-4.5-2.2-6.8-1.5c-0.5,0.2-1,0.4-1.5,0.2
			c-0.3-0.1-0.5-0.3-0.7-0.6c-0.4-0.4-0.9-0.8-1.3-1.3c-0.6-0.6-1.2-1.1-1.8-1.7c-0.1,0.1-0.2,0.1-0.3,0.1
			C763.8,513.5,761,513.9,758.3,514.4z"/>
		<path class="st3" d="M558.7,577.2c7.4-11.6,14.1-23.7,19.9-36.1c-41-2.2-82-4.4-123-6.6c1.2,5.8,2.3,11.7,3.4,17.6
			c1.9,10.5,3.9,21.1,2.5,31.6c-0.2,1.7-0.5,3.3-0.9,4.9c27.4,4.5,55,7.8,82.8,10.1C548.8,591.8,553.9,584.6,558.7,577.2z"/>
		<path class="st3" d="M555.9,429.7c-0.9,0.8-1.8,1.5-2.6,2.2c-4.2,3.6-8.5,7-13,10.2c-8.7,6.2-18,11.6-28.1,15
			c-21.2,7.1-43.7,8.7-65.9,8.6c0,0.2,0.1,0.4,0.1,0.6c0.7,3.2-4.2,4.5-4.9,1.3c-0.3-1.2-0.5-2.4-0.8-3.6c-0.2-0.1-0.3-0.2-0.5-0.3
			c1.1,3.5,2.1,6.7,2.6,9.2c1.7,7.8,3.3,15.5,4.9,23.2c64.7-1.1,129.4-0.1,194,2.9c-0.2-4.8-0.6-9.7-1-14.5
			c-0.5,0.5-1.1,0.8-1.8,0.7c-2.8-0.1-5.5-0.2-8.3-0.5c-2.8-0.3-5.8-0.6-8.5-1.7c-1.3-0.5-2.1-1.6-1.8-3.1c0.3-1.2,1.9-2.3,3.1-1.8
			c1.2,0.5,2.4,0.8,3.7,1c0.3,0.1,0.7,0.1,1,0.2l0.5,0.1h0.1h0c0.7,0.1,1.4,0.2,2.1,0.2c0.9,0.1,1.9,0.1,2.8,0.2
			c-8.4-10.9-17.9-20.8-26-32c-1.9-2.6,2.5-5.2,4.4-2.6c9.1,12.5,20,23.5,29.1,36c0.6,0.8,0.6,1.9,0,2.6c6.1,4.6,12,9.5,17.8,14.5
			c0.4,0.4,0.9,0.8,1.3,1.2c-0.4-0.4-0.8-0.9-1.2-1.4c8.8-6.8,21.6-9.4,32.1-12.2c11.3-2.9,22.8-4.9,34.2-6.9c2-0.4,4.1-0.7,6.1-0.3
			c1,0.2,2,0.7,2.8,1.4c-1.4-1.7-2.8-3.5-4.1-5.2c-12.5-16-25.1-32.1-37.6-48.2C647,426.3,601.5,427.2,555.9,429.7z"/>
		<path class="st7" d="M621.6,601.9c0,0.4,0,0.9,0,1.3c0.3,0.3,0.7,0.7,1,1c3.4,3.4,7.2,7.1,11.5,9.1c0.8-3.8,1.6-7.7,2.2-11.5
			C631.4,601.9,626.5,601.9,621.6,601.9z"/>
		<path class="st7" d="M519.3,624.7c8.6-8.1,16.7-16.8,24-26.1c-27.7-2.2-55.3-5.6-82.8-10.1c-2.8,12.9-9.8,24.6-15.7,36.7
			c17.8,6.4,36.1,11.6,54.6,15.8C506.4,636,513,630.6,519.3,624.7z"/>
		<path class="st7" d="M617.5,649c-7.1-0.4-13.9-2.6-18.7-8.2c-1.3-1.5-2.4-3.2-4-4.3c-1.4-0.8-2.8-1.5-4.4-1.8l-12.6-3.8
			c-0.8-0.2-1.7-0.5-2.2-1.2c-0.3-0.5-0.5-1-0.6-1.6c-0.5-2.8-0.2-5.7-0.6-8.6c-0.4-2.8-1.9-5.8-4.5-6.8l3.4-12.1
			c-8-0.4-16-0.9-24-1.5c-2.5,3.3-5.1,6.5-7.8,9.7c-10.6,12.5-22.5,23.8-35.6,33.7c19.9,4.1,40.1,6.9,60.4,8.4
			c19.6,1.4,39.2,1.5,58.7,0.4c0.3-1.1,0.6-2.3,0.9-3.4C623.3,648.6,620.6,649.2,617.5,649z"/>
		<path class="st7" d="M587,521.8c1.2-3,6.1-1.7,4.9,1.3c-2.4,6.1-5.1,12.2-7.8,18.2c19.4,1,38.8,2.1,58.2,3.1c0-0.2,0-0.4,0-0.6
			c0-14.9,0.2-29.9-0.4-44.9c-64.6-3-129.3-4-194-2.9c2.7,12.7,5.2,25.5,7.7,38.3c41,2.2,82,4.4,123,6.6
			C581.5,534.7,584.3,528.3,587,521.8z"/>
		<path class="st4" d="M584,541.4c2.8-6,5.4-12.1,7.8-18.2c1.2-3-3.7-4.3-4.9-1.3c-2.6,6.5-5.4,12.9-8.4,19.2
			c-5.8,12.5-12.5,24.5-19.9,36.1c-4.8,7.4-9.9,14.5-15.3,21.5c-7.3,9.3-15.3,18-24,26.1c-6.3,5.9-13,11.3-20,16.3
			c-2.4,1.7-4.8,3.4-7.3,5c-2.7,1.8-0.2,6.2,2.6,4.4c3.9-2.5,7.7-5.2,11.4-8c13.1-9.9,25-21.2,35.6-33.7c2.7-3.1,5.3-6.4,7.8-9.7
			c10.4-13.6,19.6-28.1,27.5-43.3C579.4,551.1,581.7,546.3,584,541.4z"/>
		<path class="st5" d="M430.8,199.4c-1.8-9-1.5-19,1.3-27.6c-6.6-0.1-13.5,1.6-18.7,3.9c-10.2,4.4-18.9,12.9-22.8,23.3
			c-2.8,7.5-4.5,24.2,4.7,28.4c-1.3-7,0.9-14.3,5.9-19.4c-1.6,4.5-2.1,9.3-1.2,14c0.7,3.8,2.5,7.8,6.1,9.5c0.6,0.3,1.4,0.5,1.9,0
			c0.4-0.4,0.6-0.8,0.6-1.3c0.4-2.4,0.8-4.7,1.2-7.1c-0.1,2.9,1.1,5.7,3.3,7.6c0.3-0.6,0.7-1.2,1.1-1.8c1.4-8.1,4-15.6,8.3-21.6
			C424.7,204.2,427.5,201.5,430.8,199.4z"/>
		<path class="st2" d="M493.9,338.2c-0.8,0.5-1.7,0.5-2.5,0c-3.3,2.9-6.9,5.3-10.8,7.3c8.2,12.4,8,30.1,0.3,42.6
			c0.5,3.3,0.7,6.7,0.9,10c0.4,5.5,0.7,11,1.9,16.3c0.6,2.6,1.4,5.2,2.5,7.7c0.5,1.1,2.6,3.9,2.7,5.6c2,3,4.3,5.8,7.5,7.6
			c5.9,3.4,13,1,17.9-3c4.1-3.2,7.5-7.4,10.7-11.6c6.4-8.3,11.2-16.7,16-25.9c5.4-10.4,11.9-17.9,21.5-23.3c0.1-0.2,0.2-0.4,0.3-0.6
			c-12.6-4.9-23.4-13.9-31.5-24.8c-4.3-5.9-8-12.2-11-18.9c-4.4-0.5-8.7-1.7-12.7-3.6C504.1,329.4,499.4,334.4,493.9,338.2z"/>
		<path class="st2" d="M420.3,237.2c0.7-0.2,1.4-0.1,2,0.3c1.2,0.7,1.6,2.3,0.9,3.5c0,0,0,0,0,0c-0.3,0.6-0.9,1-1.5,1.2l-0.3,0.1
			c-1.6,0.7-3.2,1.6-4.6,2.7c-0.4,0.3-0.7,0.6-1.1,0.9c-0.8,0.8-2,0.9-3,0.4c0,0.7,0,1.3,0,2c0,0.9,0,1.8,0,2.6
			c0.1,4.3,0.5,8.6,0.9,12.6c0.3,2.7,0.6,5.4,1,7.8c1.5,10.5,4.1,20.8,7.5,30.8c1.1,3.2,2.4,6.4,3.7,9.5c0.3,0.7,0.6,1.5,0.9,2.2
			c0.8,1.9,1.6,3.7,2.5,5.5c0.1,0.2,0.2,0.4,0.3,0.6c5.5,11.5,11.4,29,25.9,30.4c8.7,0.9,17.4-0.8,25.1-4.8c3.9-2,7.5-4.5,10.8-7.3
			c-0.4-0.2-0.8-0.5-1-0.9c-0.7-1.2-0.3-2.7,0.9-3.5c4.8-3.4,8.9-7.6,12-12.6c-3.3-2.2-6.3-5-8.8-8.1c-3.4-4.4-4.3-9.5-4.9-15
			c-1.2-12.4,2.7-25.6,10-35.9c-5.7-5.2-12.1-9.4-19-12.7c-6.3-3-12.3-5.9-18-9.2c-5.4-1.9-11.1-2.7-16.9-2.4
			c-3.3,0.2-3.2-4.9,0-5.1c2-0.1,4-0.1,6,0.1c-7.9-6.3-14.3-14.2-18.7-25.1c-1.1-2.7-1.9-5.5-2.4-8.4c-3.2,2.1-6.1,4.7-8.3,7.8
			c-4.3,6-6.9,13.6-8.3,21.6c-0.7,4.2-1.1,8.4-1.3,12.7v0C415.1,239.7,417.6,238.2,420.3,237.2z M416.8,271.7
			c0.4-1.3,1.8-2.1,3.1-1.8c0.2,0.1,0.4,0.1,0.6,0.1c0.2,0,0.5,0,0.7,0c0.3,0,0.5-0.1,0.7-0.2c0.3-0.1,0.6-0.3,0.8-0.5
			c0.2-0.2,0.4-0.3,0.5-0.5c0.1-0.1,0.2-0.3,0.3-0.4c0.7-1.2,2.3-1.6,3.5-0.9c0.6,0.3,1,0.9,1.2,1.5c0.2,0.7,0.1,1.4-0.3,2
			c-1.9,3.3-5.7,4.9-9.4,3.8C417.3,274.4,416.5,273.1,416.8,271.7L416.8,271.7z M433.7,276.4c-0.2-1.4,0.4-2.7,1.8-3.1
			c1.2-0.3,2.9,0.4,3.1,1.8c1.4,7.4,0.1,15-3.7,21.5c-0.8,1.4-1.8,2.8-1.8,4.5c0,1.6,1.1,2.1,2.5,2.4c3.3,0.8,6.8-0.1,9.6-1.9
			s5.3,2.6,2.6,4.4c-3.7,2.4-8.2,3.3-12.5,2.6c-4.2-0.7-7.6-3.7-7.1-8.2c0.4-4.2,3.6-7.6,4.9-11.7
			C434.2,284.7,434.4,280.5,433.7,276.4L433.7,276.4z M479.7,302.8c1.8-2.7,6.2-0.2,4.4,2.6c-6.3,9.6-18.2,13.9-29.2,10.4
			c-3.1-1-1.8-5.9,1.3-4.9C465,313.8,474.6,310.5,479.7,302.8L479.7,302.8z M466.3,266.5c0.4-0.1,0.8-0.2,1.2-0.3
			c0.1,0,0.3-0.1,0.4-0.1l0.2-0.1c0.3-0.2,0.7-0.4,1-0.6c0,0,0.3-0.2,0.3-0.2l0.3-0.3l0.4-0.4c0,0,0.2-0.3,0.3-0.3l0.2-0.2
			c0.1-0.1,0.2-0.3,0.3-0.4c0,0,0.1-0.3,0.2-0.3c0-0.1,0.1-0.2,0.1-0.4c0.4-1.3,1.8-2.1,3.2-1.7c1.3,0.4,2,1.7,1.7,3
			c-1.4,4.3-5.4,6.9-9.8,7.4c-4.7,0.5-9.1-1.9-12.5-4.9c-1-1-1-2.6,0-3.6c1-1,2.6-1,3.6,0c2.3,2.1,5.3,3.6,8.4,3.4l0.4,0
			L466.3,266.5z"/>
		<path class="st6" d="M456.3,310.9c-3.1-1-4.4,3.9-1.3,4.9c11,3.5,22.9-0.8,29.2-10.4c1.8-2.7-2.6-5.3-4.4-2.6
			C474.6,310.5,465,313.8,456.3,310.9z"/>
		<path class="st6" d="M432.9,288.7c-1.3,4-4.4,7.4-4.9,11.7c-0.4,4.5,2.9,7.5,7.1,8.2c4.3,0.7,8.8-0.2,12.5-2.6
			c2.7-1.8,0.2-6.2-2.6-4.4c-2.8,1.8-6.3,2.7-9.6,1.9c-1.4-0.3-2.5-0.9-2.5-2.4c0-1.6,1-3.1,1.8-4.5c3.8-6.5,5.1-14.1,3.7-21.5
			c-0.2-1.3-1.9-2.1-3.1-1.8c-1.4,0.4-2,1.8-1.8,3.1C434.4,280.5,434.2,284.7,432.9,288.7z"/>
		<path class="st5" d="M451.9,232.9c-2-0.2-4-0.2-6-0.1c-3.2,0.2-3.3,5.2,0,5.1c5.7-0.3,11.4,0.5,16.9,2.4c-2.3-1.4-4.6-2.8-6.8-4.3
			C454.5,235,453.2,234,451.9,232.9z"/>
		<path class="st5" d="M415.7,245.8c0.3-0.3,0.7-0.6,1.1-0.9c1.4-1.1,3-2,4.6-2.7l0.3-0.1c0.6-0.2,1.2-0.6,1.5-1.2
			c0.7-1.2,0.3-2.8-0.9-3.5c0,0,0,0,0,0c-0.6-0.4-1.3-0.4-2-0.3c-2.7,1-5.3,2.5-7.5,4.4c-0.2,0.2-0.5,0.4-0.7,0.6c-1,1-1,2.6,0,3.6
			c0.2,0.2,0.4,0.3,0.6,0.4C413.7,246.7,414.9,246.5,415.7,245.8z"/>
		<path class="st5" d="M557.4,212.7c2.3,12.7,1,25.8-2.9,38c2.8,3,4.9,6.6,6.2,10.5c0.7,2.2-1.6,3.5-3.3,3c1.1,2.2,1.9,4.5,2.4,6.9
			c0.1,0.4,0.1,0.8,0.2,1.2l8,0.8c0.5,0.1,1,0,1.5-0.1c0.5-0.3,0.9-0.8,1.1-1.4c2.4-5.6,3.4-11.7,3.1-17.8
			c-0.3-6.8-2.4-13.3-4.4-19.7l-6-19.1c-1.6-5-1.9-9.8-3.3-14.7c-2.6-9.4-6.6-19.2-15.1-24.7c-4.6-2.9-9.8-4.2-15.1-4.7
			c1,0.7,2,1.3,3,2.1C545.7,182.5,554.5,196.8,557.4,212.7z"/>
		<path class="st5" d="M552.5,256.3c-0.1,0.3-0.2,0.5-0.3,0.8c0.9,0.9,1.7,1.9,2.5,2.9C554,258.7,553.3,257.4,552.5,256.3z"/>
		<path class="st5" d="M548.7,252c-0.8-0.7-1.5-1.4-2.3-2.1c-3.1-2.7-6.4-5.2-9.4-7.9c-0.6,1.7-1.3,3.3-2,4.9
			c4.8,1.3,9.3,3.5,13.2,6.6C548.3,253,548.5,252.5,548.7,252z"/>
		<path class="st5" d="M550.4,246.8c1-3.6,1.8-7.2,2.4-10.9c2.3-15.9-0.8-32.4-10.1-45.7c-6.4-9.2-15.5-16.4-26-20.2l-1.8-0.1
			c14.1,9,23.5,23.9,25.7,40.5c1.2,8.8,0.5,17.8-1.9,26.4c0.7,0.7,1.4,1.4,2.2,2C544,241.5,547.3,244.1,550.4,246.8z"/>
		<path class="st5" d="M430.8,199.4c0.6,2.9,1.4,5.7,2.4,8.4c4.3,10.9,10.8,18.8,18.7,25.1c1.3,1.1,2.7,2.1,4.1,3.1
			c2.2,1.5,4.4,2.9,6.8,4.3c5.6,3.3,11.7,6.3,18,9.2c6.9,3.2,13.3,7.5,19,12.7c1.9-2.7,4-5.1,6.3-7.4c0.1-1.1,0.3-2.1,0.5-3.2
			c1.1-5.2,3.1-10.3,3.5-15.6c0.4-5.3-1.4-10.1-3.6-14.9c-1.3-2.9,3-5.5,4.4-2.6c2.1,4.6,4.1,9.2,4.4,14.3c0.3,5-1.1,9.9-2.4,14.6
			c-0.2,0.8-0.4,1.6-0.6,2.5c5.3-3.2,11.5-4.6,17.7-4c1.2-2.6,2.3-5.2,3.2-8c-2.7-2.9-4.9-6.4-6.2-10.2c-3.2-9.2-2.2-21.2-9.7-28.3
			c-2.4-2.2,1.2-5.8,3.6-3.6c4.4,4.2,6.4,9.9,7.7,15.7c1.1,5.2,1.7,10.6,3.6,15.6c0.7,1.8,1.6,3.5,2.7,5c0.1-0.6,0.3-1.2,0.4-1.8
			c2.7-13.9,0.4-28.5-7.2-40.5c-7-11-18.1-19.2-30.9-22.1c-1.2-0.2-2-1.4-1.8-2.6c0-0.1,0-0.1,0-0.2c-10.9-5.7-20.9-15.4-32.7-15.8
			c-16.3-0.5-26.1,9.6-30.4,22.6C429.3,180.5,428.9,190.5,430.8,199.4z"/>
		<path class="st4" d="M512.1,250c0.2-0.9,0.4-1.7,0.6-2.5c1.3-4.7,2.6-9.6,2.4-14.6c-0.3-5.1-2.3-9.7-4.4-14.3
			c-1.4-3-5.7-0.4-4.4,2.6c2.2,4.8,4.1,9.5,3.6,14.9s-2.4,10.4-3.5,15.6c-0.2,1-0.4,2.1-0.5,3.2c0.4-0.4,0.9-0.9,1.4-1.3
			C508.8,252.2,510.4,251,512.1,250z"/>
		<path class="st4" d="M548.7,252c0.6-1.7,1.2-3.4,1.7-5.2c-3.1-2.7-6.4-5.3-9.5-8c-0.7-0.7-1.5-1.3-2.2-2c-0.5,1.7-1.1,3.5-1.7,5.2
			c3,2.7,6.2,5.2,9.3,7.9C547.1,250.5,547.9,251.2,548.7,252z"/>
		<path class="st4" d="M531.9,227.2c-1.9-5-2.5-10.4-3.6-15.6c-1.2-5.8-3.3-11.5-7.7-15.7c-2.4-2.2-6,1.3-3.6,3.6
			c7.6,7.2,6.6,19.1,9.7,28.3c1.3,3.8,3.5,7.3,6.2,10.2c0.6-1.9,1.2-3.9,1.6-5.9C533.5,230.6,532.6,228.9,531.9,227.2z"/>
		<path class="st4" d="M557.3,264.3c1.7,0.5,3.9-0.8,3.3-3c-1.3-3.9-3.4-7.5-6.2-10.5c-0.6,1.8-1.2,3.7-2,5.5
			c0.9,1.2,1.6,2.4,2.2,3.7C555.7,261.3,556.6,262.7,557.3,264.3z"/>
		<path class="st6" d="M457.2,263.1c-1-1-2.6-1-3.6,0c-1,1-1,2.6,0,3.6c3.4,3,7.8,5.4,12.5,4.9c4.4-0.5,8.4-3.1,9.8-7.4
			c0.3-1.4-0.5-2.7-1.9-3.1c-1.3-0.3-2.6,0.4-3,1.7c0,0.1-0.1,0.2-0.1,0.4c0,0-0.1,0.3-0.2,0.3c-0.1,0.1-0.2,0.3-0.3,0.4l-0.2,0.2
			c-0.1,0.1-0.3,0.3-0.3,0.3l-0.4,0.4l-0.3,0.3c0,0-0.2,0.2-0.3,0.2c-0.3,0.2-0.7,0.4-1,0.6l-0.2,0.1c-0.1,0.1-0.3,0.1-0.4,0.1
			c-0.4,0.1-0.7,0.2-1.1,0.3l-0.3,0.1l-0.4,0C462.5,266.7,459.6,265.2,457.2,263.1z"/>
		<path class="st6" d="M428,271c0.3-0.6,0.4-1.3,0.3-2c-0.2-0.6-0.6-1.2-1.2-1.5c-1.2-0.7-2.8-0.3-3.5,0.9c-0.1,0.1-0.2,0.3-0.3,0.4
			c-0.2,0.2-0.3,0.4-0.5,0.5c-0.3,0.2-0.5,0.4-0.8,0.5c-0.2,0.1-0.5,0.2-0.7,0.2c-0.2,0-0.5,0-0.7,0c-0.2,0-0.4-0.1-0.6-0.1
			c-1.3-0.4-2.7,0.4-3.1,1.8c-0.3,1.3,0.4,2.7,1.8,3.1C422.3,275.9,426.2,274.3,428,271z"/>
		<path class="st6" d="M493.9,338.2c5.5-3.9,10.2-8.8,13.8-14.5l-0.2-0.1c-1.5-0.7-2.9-1.5-4.2-2.4c-3.1,5-7.2,9.2-12,12.6
			c-1.2,0.7-1.6,2.3-0.9,3.5c0.2,0.4,0.6,0.7,1,0.9C492.2,338.7,493.2,338.7,493.9,338.2z"/>
		<path class="st3" d="M285.2,363.4c0.6-2.5,2.5-4.5,4.3-6.3c9-8.8,15.4-16.9,25.3-24.5l3.1-2.4c-9,4.3-17.5,9.5-25.6,15.4
			c-2.6,1.9-5.2-2.5-2.6-4.4c12.6-9.2,26.4-16.6,41-22c0.9-0.4,1.9-0.1,2.5,0.7c2.2-1.2,4.5-2.2,6.9-3c1.3-2.1,0.2-5.1-1.9-6.7
			c-0.2-0.2-0.4-0.3-0.6-0.4c-1.9-1.1-4.1-1.2-6.3-1.1c-0.8,0-1.5,0.1-2.3,0.2c-1,0.1-2,0.2-3,0.4c-3.1,0.4-6.3,0.9-9.4,1.6
			c-1.9,0.4-3.7,0.8-5.6,1.3c-6.6,1.7-12.8,4.3-18.7,7.7c-7,4.1-13,9.8-17.5,16.6c-2,3.1-3.6,6.4-4.7,9.8c-1.4,4.5-1.7,9.3,1,12.6
			c1.2,1.5,3.1,2.1,4.9,2.6c2.4,0.5,4.8,0.8,7.3,0.7c-0.2,0,0,0.4,0.4,1.1c0.4,0.6,0.9,1.4,1.4,2.2C285,364.7,285,364,285.2,363.4z"
			/>
		<path class="st3" d="M347.1,316.1c-0.4-0.1-0.7-0.1-1.1-0.1C346.3,316,346.7,316.1,347.1,316.1z"/>
		<path class="st3" d="M463.2,360.7c-3-2.2-6.2-4.2-9.6-5.9C456.9,356.5,460.1,358.5,463.2,360.7z"/>
		<path class="st3" d="M445.2,355.8c2.8-0.5,5.6-0.8,8.4-1c-5.9-3.1-12.1-5.5-18.6-7c-7.6-1.7-15.5-2.3-23.2-3.6
			c-10.2-1.8-20.2-5-30.1-8c-5.9-1.9-11.8-3.7-17.5-6c-15,18.2-28,38-38.8,58.9c11.3,5.2,22.6,10.3,33.7,15.8
			C380.9,379.2,411.9,361.3,445.2,355.8z"/>
		<path class="st3" d="M436.6,434.7c-5.7,0.2-11.4,0.2-17.1,0.2c-3.4-0.1-6.7-0.2-10.1-0.4c1.3,1,2.7,2,4,3
			c4.6,3.6,9.1,7.5,13.3,11.6c1.1,1.1,2.2,2.2,3.3,3.2c3,3.1,6.2,8.4,10.2,11.4c0.2,0.1,0.3,0.2,0.5,0.3
			C438.7,454.4,437.3,444.6,436.6,434.7z"/>
		<path class="st3" d="M476,432.8c-4.5,0.5-9,0.3-13.5,0.6c-7,0.4-13.9,0.8-20.9,1.1c0.8,10.5,2.3,20.9,4.6,31.2
			c22.2,0,44.8-1.5,65.9-8.6c10.1-3.4,19.4-8.8,28.1-15c4.5-3.2,8.8-6.6,13-10.2c0.9-0.7,1.7-1.5,2.6-2.2c-8.4,0.4-16.7,1-25.1,1.5
			l-1.2,0.1c-4.6,5.6-9.4,11.1-15.5,15.1c-6.3,4-14.6,6.2-21.8,3.4c-6.2-2.4-11-8.1-11.2-14.9c-0.1-3.3,5-3.3,5.1,0
			c0.2,6.9,7.2,11.1,13.5,11c7-0.1,13.1-4.2,17.9-8.9c1.7-1.7,3.3-3.4,4.9-5.2c-2.8,0.2-5.6,0.4-8.3,0.6c-4.9,4-12,6.3-17.9,3
			c-3.1-1.8-5.4-4.6-7.5-7.6c0,0.2,0,0.5-0.1,0.7C487.6,431.6,478.8,432.5,476,432.8z"/>
		<path class="st7" d="M436.6,434.7c-0.5-6.5-0.6-13-0.5-19.6c0.1-3.3,5.1-3.3,5.1,0c-0.1,6.5,0,12.9,0.5,19.4
			c7-0.3,13.9-0.7,20.9-1.1c4.5-0.3,9-0.1,13.5-0.6c2.8-0.3,11.6-1.1,12.9-4.4c0.1-0.2,0.1-0.4,0.1-0.7c-0.1-1.7-2.2-4.4-2.7-5.6
			c-1.1-2.5-1.9-5-2.5-7.7c-1.2-5.4-1.6-10.9-1.9-16.3c-0.2-3.3-0.5-6.7-0.9-10c-0.4-3.1-1.1-6.1-2-9.1c-2.2-6.9-6.3-10.7-11.8-15.2
			c-1.3-1.1-2.7-2.1-4-3.1c-3-2.2-6.2-4.2-9.6-5.9c-2.8,0.2-5.6,0.5-8.4,1c-33.3,5.5-64.3,23.4-86.1,49.1c1.6,0.8,3.2,1.6,4.9,2.4
			c4.1,2,8.2,4.1,12.3,6.3c11.5,6.2,22.7,13,33.1,20.8c3.4,0.2,6.7,0.3,10.1,0.4C425.2,434.9,430.9,434.9,436.6,434.7z"/>
		<path class="st7" d="M541,394.9c-4.8,9.2-9.6,17.6-16,25.9c-3.2,4.2-6.6,8.3-10.7,11.6c2.8-0.2,5.6-0.4,8.3-0.6
			c3.1-3.6,6.1-7.3,9-11c9-11.6,17-23.9,24-36.8c1.6-2.9,5.9-0.3,4.4,2.6c-4.4,8.1-9.2,16-14.4,23.7c-4.6,6.8-9.6,13.4-14.8,19.7
			l-1.1,1.4l1.2-0.1c8.4-0.5,16.8-1.1,25.1-1.5c45.5-2.5,91.1-3.4,136.6-2.6c-1.9-2.4-3.7-4.7-5.6-7.1
			c-10.2-13.1-20.3-26.8-33.7-36.9c-13.7-10.3-30.9-17.6-48-19.5c-12.4-1.4-25.3,0.2-36.9,5.1c-2,0.9-4,1.8-6,2.9
			C552.9,377.1,546.4,384.5,541,394.9z"/>
		<path class="st4" d="M441.6,434.5c-0.5-6.4-0.6-12.9-0.5-19.4c0.1-3.3-5-3.3-5.1,0c-0.1,6.5,0,13,0.5,19.6
			c0.7,9.9,2.1,19.7,4.2,29.3c0.3,1.2,0.5,2.4,0.8,3.6c0.7,3.2,5.6,1.8,4.9-1.3c0-0.2-0.1-0.4-0.1-0.6
			C444,455.4,442.4,445,441.6,434.5z"/>
		<path class="st4" d="M641.5,482.7c0,0.5-0.2,1.1-0.5,1.5l0.2-0.2c0.6-0.8,0.6-1.9,0-2.6c-9.1-12.5-20-23.5-29.1-36
			c-1.9-2.6-6.3-0.1-4.4,2.6c8.1,11.1,17.6,21.1,26,32c1.8,0.1,3.5,0.2,5.3,0.3C640.3,480.2,641.5,481.3,641.5,482.7z"/>
		<path class="st4" d="M641,484.2c0.3-0.4,0.5-1,0.5-1.5c0-1.4-1.2-2.5-2.5-2.5c-1.8-0.1-3.5-0.2-5.3-0.3c-0.9-0.1-1.9-0.1-2.8-0.2
			c-0.7-0.1-1.4-0.1-2.1-0.2h0h-0.1l-0.5-0.1c-0.3-0.1-0.7-0.1-1-0.2c-1.3-0.2-2.5-0.6-3.7-1c-1.2-0.5-2.8,0.6-3.1,1.8
			c-0.3,1.5,0.5,2.6,1.8,3.1c2.6,1.1,5.6,1.4,8.5,1.7c2.8,0.3,5.5,0.3,8.3,0.5c0.7,0,1.3-0.3,1.8-0.7
			C640.8,484.5,640.9,484.4,641,484.2z"/>
		<path class="st4" d="M517.7,437c-4.8,4.7-10.9,8.8-17.9,8.9c-6.4,0.1-13.3-4.1-13.5-11c-0.1-3.3-5.2-3.3-5.1,0
			c0.2,6.8,5,12.4,11.2,14.9c7.2,2.8,15.5,0.6,21.8-3.4c6.1-3.9,10.9-9.5,15.5-15.1l1.1-1.4c5.2-6.4,10.1-12.9,14.8-19.7
			c5.2-7.6,10-15.5,14.4-23.7c1.6-2.9-2.8-5.4-4.4-2.6c-7,12.9-15,25.2-24,36.8c-2.9,3.7-5.8,7.5-9,11
			C521.1,433.6,519.5,435.3,517.7,437z"/>
		<path class="st5" d="M621.6,600.6c0.3-10.3,0.5-20.5,0.6-30.8c0-1.9,0-4-1.3-5.4c-0.8-0.8-1.8-1.3-2.9-1.7l-12.7-5
			c-3.4-1.4-6.8-2.7-10.3-3.7c-1.6-0.5-3.2-0.7-4.8-1.2c-0.6-0.2-1.3-0.3-2-0.4c-1.1,0-2,0.5-2.7,1.4c-0.5,0.8-0.8,1.7-0.9,2.7
			c-0.3,2.3,0.1,5,0,6.8c-0.2,5.8-0.4,11.6-0.7,17.5l-0.5,13.1c7.6-1.3,15.2-2.6,22.8-3.7c0.5-0.1,1-0.1,1.5-0.1
			c0.9,0.2,1.7,0.9,2.4,1.6l11.5,11.5c0-0.4,0-0.9,0-1.3S621.6,601,621.6,600.6z"/>
		<path class="st2" d="M774.9,536.2c-8.4-6.2-19.8-8.5-30-6.3c-10.1,2.1-19.5,11.3-26.7,18.3c-2.7,2.6-5.2,5.3-7.7,8
			c-5.4,5.8-10.5,11.8-15.9,17.6c-11.8,12.6-24.7,24.1-38.6,34.3c-3.6,2.7-7.4,5.3-11.7,6.4c-3.4,0.9-7,0.5-10.2-1
			c-4.3-2-8-5.7-11.5-9.1c-0.3-0.3-0.7-0.7-1-1l-11.5-11.5c-0.7-0.7-1.4-1.4-2.4-1.6c-0.5-0.1-1,0-1.5,0.1
			c-7.6,1.1-15.2,2.4-22.8,3.7c-1.8,0.3-3.6,0.6-5.5,0.9c-1.1,0.2-2.2,0.4-3,1.2c-0.5,0.6-0.8,1.4-1,2.1c-0.2,0.8-0.4,1.6-0.7,2.4
			l-3.4,12.1c2.7,1,4.1,4,4.5,6.8c0.4,2.8,0.1,5.7,0.6,8.6c0.1,0.6,0.3,1.1,0.6,1.6c0.5,0.7,1.4,1,2.2,1.2l12.7,3.8
			c1.5,0.4,3,1,4.4,1.8c1.6,1.1,2.7,2.8,4,4.3c4.7,5.5,11.6,7.7,18.7,8.2c3.1,0.2,5.9-0.4,8.5-1.2c2.5-0.7,5-1.6,7.7-2.1
			c6.5-1.3,12.9-2.4,19.3-4.3c11.8-3.6,23.2-8.7,34.5-13.7c21.3-9.5,42.8-19,62.6-31.5c9.4-5.9,18.4-12.5,26.9-19.8
			c7.1-6,11.7-15.5,9.2-24.9c-1.3-4.9-4.3-9.2-8-12.7c-1-0.9-2-1.8-3.1-2.6L774.9,536.2z"/>
		<path class="st3" d="M547.6,254.8c0.2-0.5,0.4-0.9,0.6-1.4c-3.9-3-8.4-5.3-13.2-6.6c-0.5,1.1-1,2.2-1.6,3.3c0.1,0,0.1,0,0.2,0
			C538.6,250.3,543.5,251.9,547.6,254.8z"/>
		<path class="st3" d="M557.3,264.3c-0.8-1.5-1.7-3-2.7-4.3c-0.8-1-1.6-2-2.5-2.9c-0.2,0.4-0.3,0.8-0.5,1.2c0.1,0.1,0.3,0.3,0.4,0.4
			c0.8,0.9-0.4,2.2-1.3,1.5c-0.9,1.9-1.8,3.8-2.8,5.7c-1.6,2.9-5.9,0.3-4.4-2.6c1.2-2.1,2.2-4.3,3.2-6.6c-4.2-3.1-9.3-4.6-14.5-4.5
			c-0.7,1.2-1.4,2.5-2.2,3.6c-1.8,2.7-6.2,0.2-4.4-2.6c0-0.1,0.1-0.1,0.1-0.2c-12.1,3.3-20.2,14.4-24,26.2
			c-4.4,13.7-4.6,32.9,10,40.7c1.2,0.6,0.1,2.4-1,1.8c-7.5-4-12-11.9-13.2-20.2c-1.3-8.7,0.3-17.6,3.4-25.8
			c2.9-7.5,7.3-14.5,13.8-19.4c3.7-2.7,8-4.6,12.5-5.6c0.9-1.6,1.8-3.2,2.5-4.8c-6.2-0.6-12.4,0.8-17.7,4c-1.7,1-3.3,2.2-4.8,3.5
			c-0.5,0.4-0.9,0.9-1.4,1.3c-2.3,2.3-4.4,4.7-6.3,7.4c-7.3,10.4-11.2,23.5-10,35.9c0.5,5.5,1.4,10.6,4.9,15
			c2.5,3.2,5.4,5.9,8.8,8.1c1.3,0.9,2.7,1.7,4.2,2.4l0.2,0.1c4,1.9,8.3,3.1,12.7,3.6c3.3,0.4,6.7,0.3,10-0.5
			c6.9-1.6,12.1-7.2,16-12.8c7.9-11.2,15.8-27.5,13.6-41.7c-0.1-0.4-0.1-0.8-0.2-1.2C559.3,268.8,558.5,266.5,557.3,264.3z
			 M544.8,299.9c-2.3,4.4-5.1,8.5-8.8,11.8c-6,5.4-17.6,7.4-23.4,0.3c-4-4.8-3.4-11.9-1.8-18.1c0.5-1.8,1-3.5,1.6-5
			c3.8-10.6,12.7-24.9,26-21.3c8.3,2.2,11.7,11.5,10.8,19.3C548.7,291.6,547,295.9,544.8,299.9L544.8,299.9z"/>
		<path class="st3" d="M496.9,167.8c12.8,2.9,23.8,11.1,30.9,22.1c7.7,12,9.9,26.6,7.2,40.5c-0.1,0.6-0.3,1.2-0.4,1.8
			c-0.4,2-1,3.9-1.6,5.8c-0.9,2.7-2,5.4-3.2,8c-0.8,1.6-1.6,3.2-2.5,4.8c2-0.4,4.1-0.6,6.1-0.6c0.6-1.1,1.1-2.2,1.6-3.3
			c0.7-1.6,1.4-3.2,2-4.9c0.6-1.7,1.2-3.4,1.7-5.2c2.4-8.6,3.1-17.6,1.9-26.4c-2.2-16.6-11.6-31.4-25.7-40.5c-0.5-0.3-1.1-0.7-1.7-1
			c-1.9-0.5-3.9-1-5.9-1.2c-1.1-0.2-1.8-1.4-1.8-2.5c-2.3-0.9-4.7-1.7-7.2-2.2c-1.4-0.3-2.7,0.5-3.1,1.9c0,0.1,0,0.1,0,0.2
			c-0.3,1.2,0.4,2.4,1.6,2.7C496.8,167.8,496.9,167.8,496.9,167.8z"/>
		<path class="st3" d="M525.8,253.2c0,0.1-0.1,0.1-0.1,0.2c-1.8,2.7,2.6,5.3,4.4,2.6c0.8-1.2,1.5-2.4,2.2-3.6c-0.4,0-0.7,0-1.1,0
			C529.3,252.4,527.5,252.7,525.8,253.2z"/>
		<path class="st3" d="M546.8,256.7c-1,2.2-2,4.4-3.2,6.6c-1.6,2.9,2.8,5.4,4.4,2.6c1-1.9,1.9-3.7,2.8-5.7c-0.1,0-0.1-0.1-0.1-0.1
			C549.4,258.9,548.2,257.7,546.8,256.7z"/>
		<path class="st3" d="M507.3,167.7c2,0.3,4,0.7,5.9,1.3c1.2,0.3,2.3,0.7,3.4,1.1c10.5,3.8,19.6,11,26,20.2
			c9.3,13.3,12.4,29.8,10.1,45.7c-0.5,3.7-1.3,7.3-2.4,10.9c-0.5,1.7-1.1,3.5-1.7,5.2c-0.2,0.5-0.3,1-0.5,1.5
			c-0.2,0.5-0.4,0.9-0.6,1.4c1.5,1,2.8,2.2,4,3.4c0.2-0.4,0.4-0.8,0.5-1.2c0.1-0.3,0.2-0.5,0.3-0.8c0.7-1.8,1.4-3.6,2-5.5
			c4-12.2,5.2-25.3,2.9-38c-2.9-15.9-11.7-30.2-24.7-39.9c-1-0.7-2-1.4-3-2.1c-6.3-4.1-13.5-6.9-21-8c-1.4-0.2-2.7,0.3-3.1,1.8
			c-0.1,0.2-0.1,0.4-0.1,0.6C505.5,166.3,506.2,167.5,507.3,167.7z"/>
		<path class="st4" d="M549.2,287c0.9-7.8-2.5-17-10.8-19.3c-13.3-3.6-22.2,10.7-26,21.3c-0.5,1.5-1.1,3.2-1.6,5
			c-1.6,6.1-2.2,13.3,1.8,18.1c5.8,7.1,17.4,5.1,23.4-0.3c3.6-3.3,6.5-7.4,8.8-11.8C547,295.9,548.7,291.6,549.2,287z"/>
		<path class="st5" d="M514.7,256.4c-6.6,4.8-11,11.8-13.8,19.4c-3.1,8.2-4.7,17-3.4,25.8c1.2,8.3,5.7,16.2,13.2,20.2
			c1.1,0.6,2.2-1.1,1-1.8c-14.5-7.7-14.4-27-10-40.7c3.8-11.7,11.9-22.9,24-26.2c1.8-0.5,3.6-0.8,5.4-0.9c0.4,0,0.7,0,1.1,0
			c5.2-0.1,10.3,1.4,14.5,4.5c1.4,1,2.7,2.1,3.8,3.4c0,0,0.1,0.1,0.1,0.1c0.9,0.7,2.1-0.6,1.3-1.5c-0.1-0.1-0.3-0.3-0.4-0.4
			c-1.2-1.3-2.6-2.4-4-3.4c-4.1-2.9-9-4.5-14-4.6c-0.1,0-0.1,0-0.2,0c-2.1,0-4.1,0.2-6.1,0.6C522.7,251.7,518.5,253.6,514.7,256.4z"
			/>
		<path class="st7" d="M364.2,330.2c-4-1.5-7.9-3.3-11.6-5.4c-0.7-0.3-1.2-0.8-1.5-1.4c-0.2-0.7,0.1-1.5,0.2-2.2
			c0.4-2.4-1.9-4.5-4.2-5c-0.4-0.1-0.7-0.1-1.1-0.1c-2-0.1-4,0.2-5.8,0.9c-2.4,0.8-4.7,1.8-6.9,3c0.9,1.2,0.8,3.5-1.2,4.2
			c-4.9,1.8-9.6,3.9-14.3,6.1l-3.1,2.4c-10,7.6-16.4,15.8-25.3,24.5c-1.8,1.8-3.7,3.8-4.3,6.3c-0.1,0.6-0.1,1.3,0,2
			c0.9,5.1,9.4,8.7,13.2,10.7c8.6,4.4,17.4,8.6,26.1,12.7c0.3,0.2,0.6,0.3,1,0.4C336.3,368.1,349.3,348.4,364.2,330.2z M295.1,365.1
			c13.2-14.3,28.2-27,44.5-37.6c2.7-1.8,5.3,2.6,2.6,4.4c-16,10.5-30.6,22.8-43.5,36.9C296.5,371.1,292.9,367.5,295.1,365.1z"/>
		<path class="st7" d="M725.4,479.3c-11.5,2-23,4-34.2,6.9c-10.5,2.7-23.3,5.4-32.1,12.2c0.4,0.5,0.8,0.9,1.2,1.4
			c3.4,3.7,7.8,7.1,11.4,10.6c5.6,5.3,10.8,10.9,15.6,16.9c1.5,1.6,6.5,8.2,9.3,9.6c0.3,0.2,0.6,0.3,1,0.3c0.9-0.1,1.8-0.4,2.6-1
			c0.1-0.8,0.5-1.5,1.1-1.9c16.3-11,34.8-18.2,54.3-21.1c1.1-0.2,2.2,0.2,2.8,1.1c2.8-0.5,5.6-0.9,8.4-1.3c0.1,0,0.3-0.1,0.3-0.1
			c0,0,0.1,0,0.1-0.1c0.1-0.2-0.1-0.4-0.2-0.5c-5.8-5.9-12.8-9.9-18.5-15.7c-1.4-1.5-2.8-2.9-4.2-4.5l-1.1-1.2
			c-1.1-1.3-2.2-2.5-3.3-3.8c-0.2-0.2-0.3-0.4-0.5-0.6l-0.1-0.1c-1.5-1.8-2.9-4.4-4.8-6c-0.8-0.7-1.7-1.2-2.8-1.4
			C729.5,478.6,727.4,478.9,725.4,479.3z"/>
		<path class="st4" d="M342.2,331.9c2.7-1.8,0.2-6.2-2.6-4.4c-16.3,10.7-31.3,23.3-44.5,37.6c-2.2,2.4,1.4,6,3.6,3.6
			C311.7,354.7,326.3,342.3,342.2,331.9z"/>
		<path class="st4" d="M330.8,319.2c-14.6,5.4-28.4,12.8-41,22c-2.6,1.9-0.1,6.3,2.6,4.4c8-5.9,16.6-11,25.6-15.4
			c4.6-2.3,9.4-4.3,14.3-6.1c1.9-0.7,2.1-3,1.2-4.2C332.7,319.1,331.7,318.8,330.8,319.2z"/>
		<path class="st4" d="M703.7,538.7c15.9-10.7,34.1-17.7,53.1-20.6c1.4-0.2,2.1-1.9,1.8-3.1c-0.1-0.3-0.2-0.5-0.3-0.7
			c-0.6-0.9-1.7-1.3-2.8-1.1c-19.4,2.9-38,10.1-54.3,21.1c-0.7,0.4-1.1,1.1-1.1,1.9C699.9,538.1,701.8,540.1,703.7,538.7z"/>
	</g>
</g>
</svg>
