<?xml version="1.0" encoding="utf-8"?>
<!-- Generator: Adobe Illustrator 25.2.3, SVG Export Plug-In . SVG Version: 6.00 Build 0)  -->
<svg version="1.1" id="Layer_1" xmlns="http://www.w3.org/2000/svg" xmlns:xlink="http://www.w3.org/1999/xlink" x="0px" y="0px"
	 viewBox="0 0 2384 795.7" style="enable-background:new 0 0 2384 795.7;" xml:space="preserve">
<style type="text/css">
	.st0{fill:#E8F5E9;}
	.st1{fill:#4FAA84;}
	.st2{fill:#D3EDE8;}
	.st3{fill:#FFFFFF;}
	.st4{fill:#2D101B;}
	.st5{fill:#3A1023;}
	.st6{fill:#23443E;}
	.st7{fill:#FFFC80;}
	.st8{fill:#FCFCBE;}
	.st9{fill:#E6E7E8;}
	.st10{fill:#3C7168;}
	.st11{fill:#58595B;}
	.st12{fill:#231F20;}
	.st13{fill:#414042;}
	.st14{fill:#726658;}
	.st15{fill:#FCFF83;}
	.st16{fill:#F1F2F2;}
	.st17{fill:none;stroke:#414042;stroke-width:6;stroke-miterlimit:10;}
</style>
<path class="st0" d="M0,422.4c89.6,56.2,534.4,323.3,1219.3,316.1c650.3-6.8,1069.1-256.2,1164.7-316.1V73.2H0V422.4z"/>
<path class="st1" d="M0,354.7c89.6,57.1,534.4,328.4,1219.3,321.1c650.3-6.9,1069.1-260.2,1164.7-321.1V0H0V354.7z"/>
<g>
	
		<image style="overflow:visible;opacity:0.75;" width="2548" height="539" xlink:href="B39FC6D9.png"  transform="matrix(0.24 0 0 0.24 908.4971 647.3343)">
	</image>
	<g>
		<path class="st2" d="M1135.9,711.6c2.3,5.6-5.2,11.5-2,20c3.5,9.5,17,12.9,24.4,14.4c79.7,16.5,213.9,3.7,213.9,3.7
			c48.2-4.6,72.5-6.6,95.9-26.1c15.8-13.2,34.9-37.4,28.2-52.7c-8.1-18.4-49.8-15.3-77.4-14.9c-117.8,1.6-235.6,3.3-353.4,4.9
			c-42.7,0.6-83.9-1.2-123.1,18.5c-29,14.7-39.1,28.7-0.7,33.1c32.1,3.7,66.4,0.9,98.7,0.8C1097.5,712.9,1131.4,700.9,1135.9,711.6z
			"/>
	</g>
</g>
<g>
	
		<image style="overflow:visible;opacity:0.75;" width="2534" height="1095" xlink:href="B39FC6E8.png"  transform="matrix(0.24 0 0 0.24 831.217 480.7743)">
	</image>
	<g>
		
			<image style="overflow:visible;opacity:0.75;" width="2436" height="988" xlink:href="B39FC6ED.png"  transform="matrix(0.24 0 0 0.24 836.0171 486.5343)">
		</image>
		<g>
			<g>
				<g>
					<path class="st3" d="M846.9,503.4l5.3-6.2c2.6-3.1,7.2-3.5,10.3-1c17.8,14.2,36,29,54.3,44.6c29.2,24.8,56.4,49.5,81.9,73.7
						c129-1.6,258-3.2,387-4.9c5.2-0.1,9.5,4.2,9.5,9.4v16.8l-8,0.1L991,641.2L847.6,513.2C844.8,510.7,844.5,506.3,846.9,503.4z"/>
				</g>
				<g>
					<polygon class="st4" points="847.6,513.2 844,517.8 991,641.2 					"/>
				</g>
				<path class="st5" d="M1386.9,638.4c-0.2,1.6-1.5,2.7-3.1,2.7H991l396.2-5.2L1386.9,638.4z"/>
				<polygon class="st6" points="975.8,701.6 983.7,701.6 1014.2,641.2 991.6,641.5 				"/>
				<polygon class="st6" points="1362.5,641.2 1391.7,699.6 1398.5,699.6 1380.5,641.2 				"/>
			</g>
		</g>
	</g>
</g>
<g>
	
		<image style="overflow:visible;opacity:0.75;" width="1966" height="1016" xlink:href="B39FC6EE.png"  transform="matrix(0.24 0 0 0.24 872.4971 405.8943)">
	</image>
	<g>
		<g>
			<g>
				<path class="st7" d="M1095,547.4c0,0,73.3-28.3,102-23.8s107.2,54.1,107.2,54.1l18.2,30.6c0,0-168.6,1.7-189.9,1.9
					c-21.3,0.3-35.3,0.4-35.3,0.4S1082.8,551.6,1095,547.4z"/>
			</g>
			<g>
				<path class="st8" d="M1272.2,601.4c-11.3,7.5-24,6.2-29.5,5.8c-38.9-3-51.8,10.5-114.5,6.7c-10.3-0.6-24.6-1.7-33.2-12.3
					c-5-6.3-6.5-13-7-16.8v0c0.4-3.1-4-8.9,1.3-15.6c6.8-8.6,1.8-11.1,4.7-11.8c49.5,1.6,118.6,2,168.1,3.6
					c13.2,0,23.8,10.7,23.8,23.8v0C1283.8,589.4,1279.7,596.4,1272.2,601.4z"/>
			</g>
			<path class="st9" d="M920.4,488.9c0,0,31.7,11.1,27.8,18.4c-3.9,7.3-6,9.2-4.1,11.8s25.1,11,25.1,11L956,551.7
				c0,0-35.8-19.5-42.2-25.6c-6.4-6.1-20.3-12.6-22.6-21.3C889.3,498.1,898.8,466.8,920.4,488.9z"/>
			<path class="st9" d="M921.8,492.2c2.8,0,15.8-4.7,16-1.4c0.2,3.2,0,6.7,0,6.7L921.8,492.2z"/>
			<path class="st10" d="M926.2,485.3c1.7,7.6-13.2,16-11.2,19.8c0.8,1.5,3.3,0.4,6.8,2.6c2.8,1.7,4.4,4.3,5.4,6.5
				c-1.3-0.6-3.9-1.7-6.6-2.9c-2.2-1-3.4-1.5-4.6-1.3c-2.4,0.2-4,2.1-4.8,3.2c-0.4,1.7-0.6,4.1,0.8,5.9c1.5,2,3.8,1.7,6.4,3.1
				c4.3,2.5,6.9,8.9,5.3,10.9c-2.8,3.6-20-6-23.5-7.9c-11.1-6.2-14.2-10.7-15.1-12.1c-1.8-2.9-5.8-9.1-3.9-15
				c1.4-4.4,4.6-4,9.6-11.7c2.6-4,2.5-5.2,4.8-7.3c4.1-3.7,9.2-4.1,10.7-4.2c6-0.4,10.5,2.2,12.8,3.6
				C922.8,480.7,925.6,482.5,926.2,485.3z"/>
			<path class="st10" d="M955.1,519.2c0,0,12.8-39.8,5.5-57.5c-7.3-17.7-7.9-13.4-10.4-9.1c-2.4,4.3-17.7,31.4-17.7,31.4l-25-14.4
				c0,0,26.8-54.8,46.9-55.4c20.1-0.6,37.8-3.3,45.4,87.9l-3.4,29.7L955.1,519.2z"/>
			<path class="st2" d="M949,520.9c4.2-2.7,11-6.4,20-8.6c5.7-1.4,24.3-5.1,75.7,16.9c8.8,3.8,21,9.3,35.2,17
				c7.8,0.3,12.7-0.1,14.1,0c1.8,0.1,0.6-0.8,0,11.1c-0.6,11.8-4.9,20.4-4.9,20.4l-116.9-48.4L949,520.9z"/>
			<g>
				<path class="st7" d="M949,520.9c25.3-7.2,42.9-4.1,54.3,0c26,9.4,32.9,29.4,64.2,43.6c16,7.3,30.7,9.6,40.6,10.4
					c2,17.4,4,34.8,6,52.2c-18.5,1.4-46.7,0.4-73.1-15.7c-3.5-2.1-6.6-4.3-9.6-6.6c-24.8-0.9-41.9-9.2-50.6-14.3
					c-7.3-4.3-49.2-26.5-40.2-51.3C944.8,527.5,949,520.9,949,520.9z"/>
			</g>
			<path class="st9" d="M913.8,472.9c-1.5,0.5-3.8,1.2-6.7,1.9c-10.8,2.8-13.3,2-16.5,4.7c-4.3,3.6-6.2,10.2-4.5,12.2
				c0.7,0.8,2.1,0.7,2.6,0.6c16-1.4,31.7,1.1,37.2-6.5c0,0,3.9-5.5,3.9-5.5l0,0l-14.2-7.4H913.8z"/>
			<path class="st9" d="M1086.2,505.1c0,0,24.2-12.4,26.5-8.3c2.3,4.1-7.3,8.3-7.3,8.3s36.5,0.7,40.2,6.1c3.7,5.4-9.1,3.9-11.9,3.6
				c-9.7-1.1-17.1,2.1-20.6,6.6c-3.6,4.6-19.5,0-19.5,0L1086.2,505.1z"/>
			<path class="st10" d="M970.4,534.2c0,0,37.8,11.6,39.6,11.6s74.9-43.7,74.9-43.7l12.2,27.2c0,0-40.8,42-59.1,51.2
				c0,0-33.1,14.2-80.9-11.3c-1.1-0.6-4.8-2.6-8.4-6.5c-2.5-2.7-7.5-8.1-6.7-14.5c0.5-3.8,2.9-6.3,3.7-7.2
				C955.3,530.3,970.4,534.2,970.4,534.2z"/>
		</g>
	</g>
</g>
<g>
	<path class="st11" d="M1407.5,628.6h-123.7c-8,0-14.5-6.5-14.5-14.5l0,0c0-8,6.5-14.5,14.5-14.5h123.7V628.6z"/>
	<path class="st11" d="M1405.6,589.2L1405.6,589.2c-4.4-0.9-7.3-5.2-6.4-9.6l20.4-102.5c0.9-4.4,5.2-7.3,9.6-6.4h0
		c4.4,0.9,7.3,5.2,6.4,9.6l-20.4,102.5C1414.3,587.2,1410,590,1405.6,589.2z"/>
	<path class="st11" d="M1407.8,618.9l8,1.6L1436,519c0.9-4.4-2-8.7-6.4-9.6l0,0L1407.8,618.9z"/>
	<rect x="1407.5" y="600.8" class="st11" width="8.1" height="19.6"/>
	<rect x="1337.1" y="628.6" class="st11" width="12.6" height="63.4"/>
	<ellipse class="st12" cx="1300.3" cy="703" rx="7.1" ry="6.8"/>
	<ellipse class="st12" cx="1387.6" cy="703.5" rx="7.1" ry="6.8"/>
	<path class="st11" d="M1398.3,700.1h-111l0,0c0-4.9,3.9-8.8,8.8-8.8h93.4C1394.3,691.3,1398.3,695.2,1398.3,700.1L1398.3,700.1z"/>
	<path class="st12" d="M1344.3,710.2h-0.8c-2.7,0-4.9-2.2-4.9-4.9V703c0-2.9,2.3-5.2,5.2-5.2l0,0c2.9,0,5.2,2.3,5.2,5.2v2.4
		C1349.2,708,1347,710.2,1344.3,710.2z"/>
	<path class="st13" d="M1350,700.8h-12.2v-0.2c0-3.4,2.7-6.1,6.1-6.1l0,0c3.4,0,6.1,2.7,6.1,6.1V700.8z"/>
</g>
<g>
	
		<image style="overflow:visible;opacity:0.75;" width="1254" height="1845" xlink:href="B39FC6EF.png"  transform="matrix(0.24 0 0 0.24 1147.7771 295.2543)">
	</image>
	<g>
		<g>
			<path class="st6" d="M1405.8,574c0,0,22.2-125.1,17.8-142.1c-4.4-17-9-27.8-24.2-32.2c-19.2-5.7-42.6,21.4-46.2,37.3
				c-1.1,4.8-27.6,94.1-27.6,94.1L1405.8,574z"/>
			<path class="st13" d="M1199.2,693.8c0,0-23.8,8.2-29.4,10.1s-17.8-1-12.7,5.2c5.1,6.2,63.1,8.8,64.8,5.1c1.7-3.7,2-18.7,2-18.7
				L1199.2,693.8z"/>
			<path class="st10" d="M1331,551.5c-8.5,0-81.5,11.9-94.5,19.2c-13,7.3-37.3,123-37.3,123c1.1,1.7,4.1,5.5,9.3,7.7
				c7.8,3.2,14.9,0.4,16.3-0.2c14.8-32.8,29.6-65.5,44.5-98.3l108.8-0.2c16.1-9.8,29.8-46.2,29.8-54.7S1331,551.5,1331,551.5z"/>
			<path class="st6" d="M1315.2,517.9c-18.1-3.4-55.4-17-62.2,7.4c-6.8,24.3-10.4,43.1-10.4,43.1l50.1-7.9c0,0,23.6,24.7,49.1,37.3
				c20.5,10.2,53.2,9,58.3-4c5.1-12.9,5.8-27.2,5.8-27.2L1315.2,517.9z"/>
			<polygon class="st3" points="1290.1,494.6 1279.5,519.2 1232.3,456.4 1253.2,439.5 			"/>
			<polygon class="st9" points="1338.4,465.6 1310.6,469.3 1310.6,490.7 1332.3,493.1 			"/>
			<path class="st10" d="M1411,398.3c0,0-34.6,8.4-38.4,11.8c-3.8,3.4-20.2,16.7-19.3,38.2c0.8,21.5-25.7,121.3-25.7,121.3
				s55.8,22.7,66.6,22.1c10.8-0.7,11.8-14.6,11.6-14.3c-0.2,0.3,23.2-137.1,20.6-150.3C1423.9,413.9,1411,398.3,1411,398.3z"/>
			<path class="st9" d="M1368.1,427.8l-12.5,59.9l-76.3-10.6l-3.8,19.8c0,0,87.6,28.2,96.4,22.5c8.8-5.7,39.8-48.7,35.6-70.2
				S1391.7,409.7,1368.1,427.8z"/>
			<g>
				<path class="st8" d="M1397.4,359.2l13.6,39.1c-3.6,1.2-9,2.5-15.5,2.5c-6.8,0-12.4-1.3-16.1-2.5c-1.5-5-2.9-10-4.4-15
					L1397.4,359.2z"/>
			</g>
			<g>
				<path class="st8" d="M1340,344.7l-1.7,27.1l9.7-3.6c0,0,3,3.3,3,6.1c0,2.8,9.2,0.6,9.2,0.6s-6.4,3.4-6.2,5.3s5.3,3.5,5.4,6.8
					c0.2,3.2,6.4,7,18.6-1.1c12.2-8.1,20.8-15.3,18.6-25.6s-12.8-31.2-19.1-38.1c-6.4-6.8-23.8-9.3-34.1-4.1
					c-10.3,5.2-12.3,12.8-10.3,16.9S1340,344.7,1340,344.7z"/>
			</g>
			<path class="st9" d="M1324.4,339.1c-6.6-2.5-8.8-9.7-9-10.4c-2-6.6,0.3-14.9,5.3-17.6c2.6-1.4,7.7-0.9,17.9,0.1
				c2.1,0.2,2.8,0.3,4.1,0.3c6.5-0.2,11-3.2,13-4.3c8.4-4.8,20.4-4.4,27.6-2c9.5,3.1,14.6,10.8,17.6,15.3c6.9,10.2,7.3,19.7,8,34.6
				c0.6,14.1-1.9,17.8-4.3,19.3c-0.3,0.2-2.8,1.7-5.3,1c-4.8-1.3-6.5-9.4-7.7-14.6c-1.7-8.2-0.3-10.6-2.9-14.5
				c-2.2-3.3-6.7-6.8-10.2-5.7c-3.7,1.2-4.9,7.9-5.1,11.3c-0.2,4.6,1.3,7.7,0.6,8c-0.9,0.4-3-3.4-9.1-9.7c-3.1-3.2-4.1-3.9-4.9-4.4
				c-2.9-1.7-4.6-1.5-7.1-3.3c-2.5-1.9-2.3-3.4-3.8-4.8C1344,333.1,1334,342.8,1324.4,339.1z"/>
			<path class="st6" d="M1411,388.1l-36.1,8.4c-1.1,5.4-2.2,10.8-3.2,16.2c13.9-4,27.8-7.9,41.7-11.9c0.2-1.8,0.3-4.4-0.5-7.5
				C1412.5,391.1,1411.7,389.3,1411,388.1z"/>
			<g>
				<path class="st8" d="M1278.9,479.4c0,0-21.3-6.7-25.3-7.7c-1.6-0.4-7.5-0.7-7.8,0.1c-0.3,0.8-4.8,9.3-0.3,15.6s8.6,8.5,11.5,7.6
					c2.9-0.9,14.9,4.4,19.1-0.8L1278.9,479.4z"/>
			</g>
			<g>
				<path class="st8" d="M1310.6,471.2c0,0-12.9-11-17.2-11c-4.3,0-14.4,8.1-14.5,10c-0.1,1.9,2.9,4.6,5.5,5.3
					c2.7,0.7,6.8,3.8,8.7,3.8c1.8-0.1,17.5,2.1,17.5,2.1V471.2z"/>
			</g>
			<path class="st14" d="M1303.8,460.2c-0.5,0.5-1.1,0.9-1.6,1.4c-7.7,6.6-15.4,13.3-23.1,19.9l-2.6-3l22.8-19.7l1.9-1.6
				c1.1-0.6,2.4-0.2,2.9,0.7C1304.5,458.5,1304.3,459.5,1303.8,460.2z"/>
			<g>
				<path class="st15" d="M1302,472.7c0,0-26.8-10.4-21.5,3C1282.9,481.7,1302,472.7,1302,472.7z"/>
			</g>
			<path class="st16" d="M1303.8,460.2c-0.5,0.5-1.1,0.9-1.6,1.4l-2.9-2.8l1.9-1.6c1.1-0.6,2.4-0.2,2.9,0.7
				C1304.5,458.5,1304.3,459.5,1303.8,460.2z"/>
		</g>
	</g>
</g>
<g>
	
		<image style="overflow:visible;opacity:0.75;" width="1533" height="847" xlink:href="B39FC6F4.png"  transform="matrix(0.24 0 0 0.24 931.537 295.2543)">
	</image>
	<g>
		<g>
			<ellipse class="st2" cx="988.6" cy="421.1" rx="21.5" ry="19.4"/>
			
				<ellipse transform="matrix(0.9215 -0.3884 0.3884 0.9215 -102.9413 404.4019)" class="st2" cx="948.9" cy="456.9" rx="9.4" ry="9.4"/>
			<ellipse class="st2" cx="1068.1" cy="359.2" rx="72.5" ry="55.9"/>
			<path class="st17" d="M1022.9,395.5c4.3-1.3,5.1-7.4,3.2-11.4c-1.9-4.1-5.5-7.1-7.4-11.2c-3.2-6.8-1-15.1,2.9-21.5
				c7.4-12,20.8-19.6,34.8-21.4s28.3,1.9,40.5,8.9c7.3,4.2,14.4,10.3,15.8,18.7c1.3,7.9-3,15.7-8.5,21.4c-10.8,11.4-27,17.5-42.6,16
				c-9.7-0.9-19.6-5-25.1-13c-7.8-11.4-4.6-26.9,0.2-39.8c2.4-6.4,5.5-13.1,11.4-16.6c8.1-4.8,18.5-2,27,2.1
				c11.3,5.5,22.3,14.6,24.2,27c2.1,13.2-7.4,26.3-19.6,31.6c-8.7,3.8-19.3,4.2-27.6-0.3c-8.4-4.6-13.9-14.5-11.9-23.9
				c1.9-8.8,10-15.4,18.8-17c8.8-1.6,18,1.2,25.5,6.1c6.3,4.2,11.8,10.4,12.7,18c1.2,11-8.4,21-19.1,23.8
				c-10.7,2.9-22.1,0.3-32.7-2.8c-6.2-1.8-12.5-3.9-17.8-7.6c-5.3-3.7-9.7-9.3-10.5-15.7c-1.2-9.6,5.4-18.5,13.3-24.1
				c13-9.2,30.2-12.1,45.5-7.8c5.5,1.6,10.9,4.1,14.9,8.3c4,4.1,6.4,10,5.5,15.7c-1.4,8.8-10.4,14.7-19.2,15.8
				c-7.6,0.9-16.8-2.5-18.2-10c-1-5.6,3.3-11.3,8.8-12.9c6.2-1.8,13.5,1.5,16.3,7.4c2.8,5.9,0.7,13.6-4.6,17.3
				c-5.3,3.7-13.3,2.9-17.8-1.7c-5.1-5.2-5.1-14.2-0.7-20c4.4-5.8,12.2-8.4,19.4-7.3c10.3,1.6,19.1,11.2,18.5,21.6
				c-0.7,11.9-13.7,20.7-25.5,19c-15.3-2.2-25.8-19.8-22.3-34.8c1.1-4.8,3.6-9.6,7.8-12.3c4.7-3,10.6-2.9,16.2-2.5
				c10.1,0.8,21.4,3.1,27.2,11.4c5.5,7.8,4.2,19.4-2.3,26.5c-6.4,7.1-17,9.7-26.3,7.6s-17.3-8.6-22.5-16.6
				c-5.7-8.7-8.1-20.5-2.9-29.6c3.5-6.1,10-10,16.9-11.8c6.8-1.8,14-1.7,21-1.4c6.8,0.3,13.7,0.9,20,3.5c6.3,2.6,11.9,7.6,13.7,14.1
				c-1.7,3.2-0.8,7.7,1.6,10.3c2.5,2.6,6.1,4,9.7,4.5c8.1,1.3,16.7-1.1,22.9-6.4c5.8-4.9,9.4-11.9,14.8-17.3
				c10.1-10.1,26.2-13.2,39.8-8.7c13.5,4.5,24.2,16.2,28.6,29.8c3.7,11.6,3.1,24.1,5.7,35.9c3.2,15.1,11.4,28.7,18.6,42.3
				s13.7,28.4,13.3,43.9"/>
		</g>
	</g>
</g>
</svg>
