<?xml version="1.0" encoding="utf-8"?>
<!-- Generator: Adobe Illustrator 25.2.3, SVG Export Plug-In . SVG Version: 6.00 Build 0)  -->
<svg version="1.1" id="Layer_1" xmlns="http://www.w3.org/2000/svg" xmlns:xlink="http://www.w3.org/1999/xlink" x="0px" y="0px"
	 viewBox="0 0 17.4 17.4" style="enable-background:new 0 0 17.4 17.4;" xml:space="preserve">
<style type="text/css">
	.st0{fill:#F18B93;}
	.st1{fill:#E52421;}
</style>
<g id="Layer_2_1_">
	<g id="Layer_1-2">
		<path class="st0" d="M4.8,0h7.8c2.7,0,4.8,2.2,4.8,4.8v7.8c0,2.7-2.2,4.8-4.8,4.8H4.8c-2.7,0-4.8-2.2-4.8-4.8V4.8
			C0,2.2,2.2,0,4.8,0z"/>
		<path class="st1" d="M0.3,15.5c0.1,0.4,0.6,1.6,1,1.4c0.1,0,0.2-0.1,0.3-0.2L17,0.9c0.1-0.1-0.6-0.7-0.7-0.6"/>
		<path class="st1" d="M2.6,2.7C2.3,2.9,1.4,4,1.6,4.3c0.1,0.1,0.1,0.1,0.2,0.2L15,14c0.3-0.1,0.9-0.7,1.2-0.9"/>
	</g>
</g>
</svg>
