<?xml version="1.0" encoding="utf-8"?>
<!-- Generator: Adobe Illustrator 25.2.3, SVG Export Plug-In . SVG Version: 6.00 Build 0)  -->
<svg version="1.1" id="Layer_1" xmlns="http://www.w3.org/2000/svg" xmlns:xlink="http://www.w3.org/1999/xlink" x="0px" y="0px"
	 viewBox="0 0 2402.1 1274" style="enable-background:new 0 0 2402.1 1274;" xml:space="preserve">
<style type="text/css">
	.st0{fill:#FFFFF5;}
	.st1{fill:#006163;}
	.st2{opacity:0.5;fill:#71617D;enable-background:new    ;}
	.st3{fill:#010101;}
	.st4{fill:#FFFFFF;}
	.st5{fill:#65841C;}
	.st6{fill:#5BA8B0;}
	.st7{fill:#EED5DB;}
	.st8{opacity:0.3;fill:#FFFFFF;enable-background:new    ;}
	.st9{fill:none;stroke:#4D4D4D;stroke-width:8;stroke-linecap:round;stroke-linejoin:round;}
	.st10{fill:none;}
	.st11{fill:#E5A88C;}
	.st12{fill:#E2C2B5;}
	.st13{fill:#04B6BA;}
	.st14{fill:none;stroke:#231F20;stroke-width:2.14;stroke-miterlimit:10;}
	.st15{fill:#232029;}
	.st16{fill:#008A94;}
	.st17{opacity:0.3;fill:#DCBAB0;enable-background:new    ;}
	.st18{opacity:0.1;fill:#5BA8B0;enable-background:new    ;}
	.st19{opacity:0.2;fill:#5BA8B0;enable-background:new    ;}
	.st20{opacity:0.2;fill:#292B37;enable-background:new    ;}
	.st21{opacity:0.3;fill:#71617D;enable-background:new    ;}
	.st22{fill:#7D85AC;}
	.st23{fill:none;stroke:#231F20;stroke-width:0.67;stroke-miterlimit:10;}
	.st24{fill:#444468;}
</style>
<g>
	<g id="Layer_2_1_">
		<g id="Layer_1-2">
			<path class="st0" d="M1368.3,144.5h392.8l0,0v317.7c0,370.1-281.9,670.2-629.6,670.2c0,0,0,0,0,0H440.3l0,0l0,0
				C440.3,586.8,855.8,144.5,1368.3,144.5C1368.3,144.5,1368.3,144.5,1368.3,144.5z"/>
			<polygon class="st1" points="1646.9,1113.7 530.8,1113.7 614.8,1021.6 1579.9,1021.6 			"/>
			<path class="st2" d="M1573.2,1040.4c0,2.6-12.7,4.6-28.2,4.6s-28.3-2.1-28.3-4.6s12.7-4.6,28.3-4.6S1573.2,1037.9,1573.2,1040.4z
				"/>
			<ellipse class="st2" cx="1051.9" cy="1053.6" rx="152" ry="11.3"/>
			<rect x="1074.3" y="136.2" class="st3" width="620.7" height="362.1"/>
			<rect x="1084.1" y="144.5" class="st4" width="601" height="345.5"/>
			<path class="st5" d="M1039.5,838.8l-27.6,5.2c-0.9,0.2-1.7-0.4-1.9-1.3c0,0,0,0,0,0l-27.2-143.1c-1.2-6.3,2.9-12.4,9.3-13.6
				l7.9-1.5c6.3-1.2,12.4,2.9,13.6,9.3l27.2,143.1C1040.9,837.8,1040.3,838.6,1039.5,838.8z"/>
			<rect x="1528.3" y="909.6" class="st6" width="13.5" height="8"/>
			<rect x="1516.7" y="917.6" class="st6" width="56.5" height="10.5"/>
			<polygon class="st7" points="1561.7,1040.8 1528.3,1040.8 1517.8,935 1572.1,935 			"/>
			<rect x="1519.8" y="928.1" class="st6" width="50.4" height="6.9"/>
			<polygon class="st8" points="1541.1,1041.1 1534.4,1041.1 1528.3,935 1535.1,935 			"/>
			<path class="st9" d="M1009.5,386c-17.3-15.4-28.3-38.9-28.3-65.3c0-25.8,10.6-48.9,27.3-64.3"/>
			<path class="st9" d="M981.1,417.4c-24.6-23.5-40.1-58.1-40.1-96.7c0-40.2,16.9-76.1,43.2-99.6"/>
			<path class="st9" d="M941.1,454.7c-32.1-33.7-52.1-81.3-52.1-134s20-100.3,52.1-134"/>
			<path class="st9" d="M1761.1,386c17.3-15.4,28.3-38.9,28.3-65.3c0-25.8-10.6-48.9-27.3-64.3"/>
			<path class="st9" d="M1789.5,417.4c24.6-23.5,40.1-58.1,40.1-96.7c0-40.2-16.9-76.1-43.2-99.6"/>
			<path class="st9" d="M1829.6,454.7c32.1-33.7,52.1-81.3,52.1-134s-20-100.3-52.1-134"/>
			<path class="st10" d="M480.9,49.4c1.3,1.9,2.6,3.8,4,5.7C483.8,53,482.4,51.1,480.9,49.4z"/>
			<path class="st11" d="M728.1,446.3c-10.2,2.3-11.2,20.1-11.3,21c-0.1,0-0.1-0.1-0.1-0.2c-1.7-2-3.8-4-6-6.2
				c-11.4-10.8-28.2-22.8-37.1-31.2c-16.1-15.1-30-28.8-20.8-35.6c5.2-3.8,19.9,6.3,19.9,6.3c3.2,0-0.9-6,1.6-8.6
				c4.6-4.9,9.5,6.5,16.4,19c1.9,3.5,5.4,11.6,14.9,20.2C712.4,437.1,719.9,442.3,728.1,446.3z"/>
			<path class="st12" d="M1167.3,397.4c-16.1,3.6-47.2,22.8-82.3,26.6c-37.1,21.2-81.6,21.1-84.4,22.3s-7.2,4.5-8.8,18.9
				c-2.2,11-11.6,31.7-11.6,43.8s3.6,14,4.4,25.3c5.6,3.2,8.4-1.2,13.7-0.8s7.6,6.4,11.2,6.4c14,2.4,22.9,2,29.3,10l-0.3-0.1
				c-1.8-0.6-3.8-1.1-5.7-1.4c-21.5-2.8-35.8,22.1-41.3,41.6c-4.6,16.3-17.4,55.2-28.6,75.5c-3.4,6.3-6.7,10.8-9.6,12.3
				c-22.5-30.6-64.8-104.7-81.9-124.7c-16.6-19.4-16.6-38.8-8.5-53.1c-15.3,2.5-38.9-1.7-58.1-1.5c-11.6,0.2-23.2-1.2-34.5-4
				c-11.7-1-38.4-13.9-53.5-27.2c0-0.9,1.1-18.7,11.3-21c20.3,4.5,31.7,6.5,47,14.4c17.9-1.6,35.3-1.6,48.1,2
				c19.4-9.2,40.4-14.5,61.8-15.7c0,0-7.9,17.6,10.6,12.8c20.9-8.9,37.3-25.9,45.7-47c9.7-6.9,20.8-11.7,32.5-14
				c19.7-4,76.3-3.2,94.7-6c7.7-1.2,32.5-9.2,32.5-9.2c21.3-8,48.2-12.5,62.2-12.8C1167.3,372.9,1170.5,387.3,1167.3,397.4z"/>
			<path class="st13" d="M1167.3,397.3c-6.2,1.4-14.8,5.2-24.9,9.5c-15.9,6.8-35.9,14.8-57.3,17.2c-37.1,21.2-81.6,21.1-84.4,22.3
				s-7.2,4.5-8.8,18.9c-2.2,11-11.7,31.7-11.7,43.8s3.6,14,4.4,25.3c5.6,3.2,8.4-1.2,13.7-0.8s7.6,6.4,11.2,6.4
				c14,2.4,22.9,2,29.3,10c-0.1,0-0.2-0.1-0.3-0.1c-1.8-0.6-3.8-1.1-5.7-1.4c-1.4-0.2-2.8-0.2-4.2-0.2l0,0
				c-19.2,0.7-31.9,23.6-37.1,41.8c-4.6,16.3-17.4,55.2-28.6,75.5c-3.4,6.3-6.7,10.8-9.6,12.3c-22.4-30.5-64.7-104.5-81.8-124.6
				l-0.1-0.1c-2.1-2.5-4.1-5.1-5.8-7.8c-6.8-10.6-8.9-21-7.7-30.4l0,0c0.7-5.2,2.4-10.2,5-14.8c-15.3,2.5-38.9-1.7-58.1-1.5
				c-11.6,0.1-23.2-1.2-34.5-4c-1.7-0.2-3.4-0.5-5-0.9h-0.1l0,0c-13.2-3.4-35.2-14.6-48.3-26.2c0-0.9,1.1-18.7,11.3-21
				c20.3,4.5,31.7,6.5,47,14.5c17.9-1.6,35.3-1.6,48.1,2c19.4-9.2,40.4-14.5,61.9-15.7c0,0-7.9,17.6,10.6,12.8
				c20.9-8.9,37.3-25.9,45.7-47c9.8-6.9,20.8-11.7,32.5-14c19.7-4,76.3-3.2,94.7-6c7.7-1.2,32.5-9.2,32.5-9.2
				c21.3-8,48.2-12.5,62.2-12.8C1167.3,372.9,1170.5,387.3,1167.3,397.3z"/>
			<path class="st14" d="M1038.8,549.9c-0.1,0-0.2-0.1-0.3-0.1L1038.8,549.9L1038.8,549.9C1038.8,549.9,1038.8,549.9,1038.8,549.9z"
				/>
			<path class="st11" d="M941.3,413c-8.3,21.1-24.8,38.1-45.7,47c-18.5,4.8-10.6-12.8-10.6-12.8s12.4-11.6,7.6-26.5
				s-13.2-10.9-25-12c-14.6-1.4-0.5-14.3-7.2-24.7c-12.4,0.7-2-9.8,5.2-23.5c-4.6-3.4-3.6-18.3,10.8-29.3c0,0,0,0.1,0,0.1
				c0,0,0,0.1,0,0.1s0,0.2-0.1,0.4c-1.3,10.7,0.5,17.8,10.9,22.6c2.7,2.1-4.4,20.5,2,24.1c3.2-0.3,2.7-18.8,12.5-23.3
				c11.6-4.8,19.8,7.2,16.8,19.2c-3.8,15.4-2.9,25.3,4,28.2c0,0,0,0,0.1,0c2.7,1.1,6.2,1.1,10.6,0
				C933.4,402.7,934.1,412.2,941.3,413z"/>
			<path class="st15" d="M987.9,344.7c-0.4,22.5-22.2,23.1-31.5,17.3c-1.6,18.9-10.1,39.5-23,40.7c-3.5,0.4-7.1,0.4-10.6,0
				c0,0,0,0-0.1,0c-6.9-2.9-7.8-12.8-4-28.2c3-12.1-5.2-24-16.8-19.2c-9.8,4.5-9.3,22.9-12.5,23.3c-6.4-3.6,0.6-21.9-2-24.1
				c-10.4-4.9-12.2-12-10.9-22.6c0-0.2,0-0.3,0.1-0.4s0-0.1,0-0.1c0,0,0-0.1,0-0.1c13-11.6,28-15.8,40.1-14.5
				c25.2,2.8,27.7,18.9,32.5,19.7C961.9,314,988.3,321.5,987.9,344.7z"/>
			<path class="st11" d="M1248.8,326.1c-5.2,10.7-4.8,10.7-16,19.1s-21.4,18.8-26.5,29.3c-2,4.2-0.5,6.5,2.5,8
				c-21.6,7.1-39.1,14.3-41.4,14.9c3.2-10,0-24.5-4-26.5c16.1-1.2,30.5-4.4,36.9-6.4s18.9-5.2,21.3-10.8s8.4-12.2,13.2-16.2
				C1239,333.9,1244.7,328,1248.8,326.1z"/>
			<path class="st11" d="M1284.2,322.3c-0.9,1.1-1.8,2.2-3,3.6c0.6-2.8-1.8-4.6-6.2-4c-6.4,0.8-8,4.8-7.2,8.4
				c-2,5.6-1.1,17.7,2.9,22.1c1,1.1,1.8,2.3,2.5,3.5l0,0c0.7,1.8,1.3,3.6,1.8,5.4c2,7.9-2.4,20.2-8.8,36s-3.6,24-6.8,43.2
				c-3.1,18.6-7.3,36.8-8.3,59.4l0,0c0,0.8-0.1,1.6-0.1,2.4c-8.4-18.1-32.6-17.7-55.1-12c-2-12.5,21.3-55.8,28.1-72.2
				s7.7-30.2,1.2-32.2c-3.9-1.2-11.8-1.4-16.4-3.6c-3-1.5-4.5-3.8-2.5-8c5.1-10.5,15.2-20.9,26.5-29.3s10.8-8.4,16-19.1l0,0v-0.1
				c5.2-10.8,14.8-14.5,21.2-11.3c3.2-1.4,6.8-1.4,10,0C1280,314.6,1286.8,319,1284.2,322.3z"/>
			<path class="st11" d="M1234.1,386.4c0.4,1.1,0.4,2.3,0.1,3.4c-1.6,8.9-3.1,17.8-6.4,26.2c-2.4,6.6-6.2,12.6-11,17.7
				c2.9-6.2,5.5-11.6,7.1-15.5c6.8-16.5,7.7-30.2,1.2-32.2c-3.9-1.2-11.8-1.4-16.4-3.6c-3-1.5-4.5-3.9-2.5-8l0.3-0.5l0,0
				c3.5-2.5,7.4,5.2,11.4,6.5c4.7,1.6,9.9,1.7,14.2,4.1C1232.9,385,1233.6,385.6,1234.1,386.4z"/>
			<path class="st11" d="M1274.9,361.5c0.1,0.5,0.2,0.9,0.3,1.4c-2.2-0.4-4.2-1.7-5.4-3.6c-1.7-2.3-2.7-5-4.2-7.4
				c-1.1-1.5-2.1-3.1-3-4.7c-0.9-2.2-1.3-4.6-1.2-7c-0.1-6.8,1.4-15.2,8.6-17.9c1.9-0.8,4-1,6-0.5c-0.4,0-0.8,0-1.2,0.1
				c-6.4,0.8-8,4.8-7.2,8.4c-2,5.6-1.1,17.7,2.9,22.1c1,1.1,1.8,2.3,2.5,3.6l0,0C1273.8,357.8,1274.4,359.6,1274.9,361.5z"/>
			<path class="st11" d="M1281.1,325.9c-0.4,1.6-1.2,3-2.4,4.2c-4.5,5-3.5,10.8-3.5,18s2.5,11.5-0.4,13.4c-0.2-1.9-0.8-3.8-1.8-5.4
				l0,0c-0.7-1.3-1.5-2.5-2.5-3.5c-4-4.5-4.9-16.5-2.9-22.1c-0.8-3.6,0.8-7.6,7.2-8.4C1279.4,321.3,1281.7,323.1,1281.1,325.9z"/>
			<path class="st16" d="M1234.8,570c-23.7,21.3-53,30.1-73.1,35.7c-18,5-63.2,19.4-93.4,26.1c-3.5,0.8-6.8,1.4-9.8,2
				c0,4.8,6.3,25.3,5.6,57.2c-1,45.5-8,95-9.1,154.4c0.4,8.5,10.4,26.1,12.1,38.1c0.1,0.8,0.2,1.6,0.3,2.4l0,0
				c0.1,1.4,0,2.7-0.3,4.1c-0.6,1-1.4,1.8-2.3,2.5c-0.4,0.3-0.8,0.6-1.3,0.9c-0.9,0.6-1.9,1.1-2.9,1.6c-0.3,0.2-0.7,0.3-1,0.5
				s-0.8,0.4-1.3,0.5s-0.7,0.3-1.1,0.4l-0.9,0.3c-0.4,0.1-0.7,0.2-1.1,0.4c-1.6,0.5-3.3,1-5.1,1.4c-0.7,0.2-1.4,0.3-2.1,0.4
				c-1.1,0.2-2.2,0.4-3.3,0.6c-0.6,0.1-1.2,0.2-1.8,0.3l-1.6,0.2c-0.1,0-0.2,0-0.3,0l-1.8,0.2l-1.1,0.1c-0.3,0-0.6,0.1-0.9,0.1
				c-1.4,0.1-2.8,0.2-4.2,0.2h-1.1c-5.9,0.1-10.8-0.5-12.9-1.9c-0.3-0.2-0.5-0.4-0.7-0.7c-0.5-1.8-0.8-3.6-0.9-5.4
				c-0.8-6.6-1.6-17.5-3.5-27.1c-4.5-22.7-11.7-28.7-18.1-45.6s-8.2-26.4-15.7-60.8c-6-27.7-11.2-69.9-11.2-75.9
				c0-4.3-0.4-9.8-5.7-17.7c11.2-20.3,24-59.2,28.6-75.5c5.5-19.5,19.8-44.4,41.3-41.6l5.7,1.4l0.4,0.1l0,0l2,0.5
				c24.9-12,125.3-4.8,155-24.5c-2.7-8.2-0.9-19.7,0-35.3c22.5-5.6,46.7-6,55.1,12c0-0.8,0.1-1.6,0.1-2.4
				C1251.8,506.6,1256.7,550.3,1234.8,570z"/>
			<path class="st14" d="M1038.8,549.9c-0.1,0-0.2-0.1-0.3-0.1L1038.8,549.9L1038.8,549.9C1038.8,549.9,1038.8,549.9,1038.8,549.9z"
				/>
			<path class="st11" d="M1080.5,1049.3c-0.6,5.1-3.7,8.5-10.4,8.4c-16.5-0.2-33.7-4.8-50.5-3.6c-15.9,1.1-31.4,1.7-44.2,3.1
				l-2.2,0.2c-13.3,1.6-11.4-9-5.4-10.6s44.3-13.9,56.7-28.9c5.8-7,10.3-29.8,5.9-63.4c-2.5-19.3-8.8-34.7-11-47.8
				c-0.5-2.7-0.7-5.4-0.7-8.2c2.1,1.4,6.9,2,12.9,1.9h1.1c1.4,0,2.8-0.1,4.2-0.2c0.3,0,0.6-0.1,0.9-0.1l1.1-0.1l1.8-0.2
				c0.1,0,0.2,0,0.3,0l1.6-0.2c0.6-0.1,1.2-0.2,1.8-0.3c1.1-0.2,2.2-0.4,3.3-0.6c0.7-0.1,1.4-0.3,2.1-0.4c1.8-0.4,3.5-0.8,5.1-1.4
				c0.4-0.1,0.7-0.2,1.1-0.4l0.9-0.3c0.4-0.1,0.7-0.2,1.1-0.4s0.9-0.3,1.3-0.5s0.7-0.3,1-0.5c1-0.5,2-1,2.9-1.6
				c0.5-0.3,0.9-0.6,1.3-0.9c0.9-0.7,1.7-1.5,2.3-2.5c0.3-1.3,0.4-2.7,0.3-4.1c0.7,2.5,1.2,5,1.5,7.6c1,7.6,2,21.3,0.6,42.6
				c-2.1,32.1-4.6,45.8-1.5,68.4c0.4,2.9,0.9,5.8,1.5,9.1c3.3,18.2,10.8,25.7,11.2,32.5C1080.6,1047.2,1080.6,1048.3,1080.5,1049.3z
				"/>
			<path class="st17" d="M1080.5,1049.3c-0.6,5.1-3.7,8.5-10.4,8.4c-16.5-0.2-33.7-4.8-50.5-3.6c-15.9,1.1-31.4,1.7-44.2,3.1
				c5.2-7.1,18-7.2,28.6-9.3c8.7-1.7,14.9-3.5,24-1.9c7.6,1.3,12.9,2.7,20.8,3.1s13.9,0.2,21.7,0.5
				C1073.4,1049.8,1078.1,1047.7,1080.5,1049.3z"/>
			<path class="st17" d="M1059,900.5c2-0.9,3.9-2,5.7-3.2c1.6-1,3-2.3,4.1-3.8c-0.3-2.6-0.8-5.1-1.5-7.6c0.1,1.4,0,2.7-0.3,4.1
				c-0.6,1-1.4,1.8-2.3,2.5c-0.4,0.3-0.8,0.6-1.3,0.9c-0.9,0.6-1.9,1.1-2.9,1.6c-0.3,0.2-0.7,0.3-1,0.5s-0.8,0.4-1.3,0.5
				s-0.7,0.3-1.1,0.4l-0.9,0.3c-0.4,0.1-0.7,0.2-1.1,0.4c-1.6,0.5-3.3,1-5.1,1.4c-0.7,0.2-1.4,0.3-2.1,0.4c-1.1,0.2-2.2,0.4-3.3,0.6
				c-0.6,0.1-1.2,0.2-1.8,0.3l-1.6,0.2c-0.1,0-0.2,0-0.3,0l-1.8,0.2l-1.1,0.1c-0.3,0-0.6,0-0.9,0.1c-1.4,0.1-2.8,0.2-4.2,0.2h-1.1
				c-5.9,0.1-10.8-0.5-12.9-1.9c0,2.7,0.3,5.5,0.7,8.2C1030.3,910.5,1048.2,905.7,1059,900.5z"/>
			<path class="st18" d="M1239.4,538.7c-31.6,32.6-72.5,54.7-117.2,63.2c-17.2,3.2-52.6,3.1-63.8,19c-1.3,1.8-2.4,3.7-3.2,5.8
				c-4.7,2.5-8,10.3-9.6,18.7c-4.8,26.4-3.7,54.8-5.1,81.6c-2.1,39.2-4.1,78.9,4,117.3c2.7,13,6.6,25.8,10,38.6
				c1.2,4.4,2.3,8.8,3.3,13.3c0.3,1.5,0.7,3,1,4.5c1.7,7.9,2.7,15.9,3,23.9c1,27.1-6.8,57.2,5.9,80.2c-3.1-22.7-0.7-36.3,1.5-68.4
				c1.4-21.4,0.4-35-0.6-42.6c0-5.4-1.2-9.9-1.7-10.1c-1.8-11.9-11.7-29.5-12.1-38.1c1.1-59.4,8.1-108.9,9.1-154.4
				c0.6-27-3.8-45.7-5.1-53.8l0,0c-0.1-0.3-0.1-0.7-0.2-1c0-0.1,0-0.2,0-0.3s-0.1-0.4-0.1-0.6v-0.3c0-0.2,0-0.3,0-0.5
				c0-0.1,0-0.1,0-0.2c0-0.2,0-0.4,0-0.6c3-0.5,6.3-1.2,9.8-2c30.2-6.7,75.4-21.1,93.4-26.1c20.1-5.6,49.4-14.5,73.1-35.7
				c11.3-10.2,15.5-26.8,16.8-41.3C1247.1,530.9,1243,535,1239.4,538.7z"/>
			<path class="st19" d="M1032.8,548.4c-21.5-2.8-35.8,22.1-41.3,41.6c-4.6,16.3-17.4,55.2-28.6,75.5c5.3,7.9,5.7,13.4,5.7,17.7
				c0,2.5,0.9,11.4,2.4,22.9c2.4-2.2,4.5-4.8,6.1-7.7c23-39.6,9.9-91.3,37.8-128.3c2.5-3.3,13.6-11.6,23.4-20.4L1032.8,548.4z"/>
			<path class="st17" d="M991.9,465.2c-2.2,11-11.7,31.7-11.7,43.8s3.6,14,4.4,25.3c5.6,3.2,8.4-1.2,13.7-0.8s7.6,6.4,11.2,6.4
				c14,2.4,22.9,2,29.3,10c-0.1,0-0.2-0.1-0.3-0.1c-1.8-0.6-3.8-1.1-5.7-1.4c-1.4-0.2-2.8-0.2-4.2-0.2l0,0
				c-20.6-4.8-42.6-2.7-63.9-0.5c5.9-0.6,4.6-42.3,5.3-47.2c1.8-12.3,5.9-26.2,10.5-37.8c9.8-25.1,39.1-22.6,62-28.9
				c28.5-7.8,56.1-19.1,85.1-24.7c4.9-1,9.9-1.7,14.9-2.3c-15.9,6.8-35.9,14.8-57.3,17.2c-37.1,21.2-81.6,21.1-84.4,22.3
				S993.5,450.7,991.9,465.2z"/>
			<path class="st17" d="M903.5,533.4c-0.9,6.8-5.8,12.8-11.8,16s-13.2,4.2-20.1,3.8h-0.2l-0.1-0.1c-2.1-2.5-4.1-5.1-5.8-7.8
				c5.7,3.2,12.4,4.1,18.7,2.5C892.3,545.9,899.2,540.4,903.5,533.4z"/>
			<path class="st17" d="M895.6,460c18.3-7.8,33.3-21.8,42.2-39.6c0-0.4,0-0.9,0-1.3c-6.6,14.7-20.5,24.6-33.9,33.6
				c-2.6,1.7-5.2,3.4-8.1,4.1s-6.4,0.2-8.5-2c-2.3-2.5-1.8-5.3-1.7-8.1c-0.3,0.3-0.5,0.5-0.5,0.5S877.2,464.8,895.6,460z"/>
			<path class="st17" d="M870.1,496.4c-20.6-3.9-57.8,3.4-86-1.7c-6.2-1.1-12.8-2.7-18.8-1.2l-0.2,0h0.1c1.6,0.4,3.3,0.7,5,0.9
				c11.3,2.8,22.9,4.1,34.5,4c19.2-0.2,42.8,4,58.1,1.5c-2.6,4.6-4.3,9.6-5,14.8C860,508.7,865.7,501.3,870.1,496.4z"/>
			<path class="st17" d="M1171.9,395.7c0.1-0.9,0.2-1.7,0.3-2.6c0.4-2.7,0.5-5.5,0.4-8.2c-0.2-3.7-1.7-10.5-4.6-14.5
				c-1.5,0.2-3.1,0.3-4.7,0.4c4,2,7.2,16.5,4,26.5C1167.9,397.2,1169.5,396.6,1171.9,395.7z"/>
			<path class="st17" d="M728.1,446.3c0,0-2.5-1.2-6.2-3.3c-1.7,1.7-3.1,3.7-4.1,5.9c-1.4,3.3-2.3,6.9-2.7,10.5
				c-0.2,1.1-0.6,3.1-0.9,5.3c0.8,0.9,1.6,1.7,2.3,2.5l0.1,0.2C716.8,466.5,717.9,448.7,728.1,446.3z"/>
			<path class="st17" d="M934.3,406.7c-0.5-1.3-0.8-2.6-0.9-4c-4.5,1.1-8,1.1-10.6,0c0,0,0,0-0.1,0c-6.9-2.9-7.8-12.8-4-28.2
				c3-12.1-5.2-24-16.8-19.2c-9.8,4.5-9.3,22.9-12.5,23.3c-6.4-3.6,0.6-21.9-2-24.1c-10.4-4.9-12.2-12-10.9-22.6
				c0-0.2,0-0.3,0.1-0.4s0-0.1,0-0.1c0,0,0-0.1,0-0.1c-0.7,0.5-1.4,1.1-2,1.7c-2.3,7-0.6,16.5,5.2,20.7c1.3,0.7,2.4,1.6,3.5,2.6
				c2.2,2.5,1.7,6.1,1.5,9.4c-0.3,5,0.3,10,1.8,14.8c0.2,0.6,0.5,1.3,1.1,1.5s1.4-0.4,1.9-0.9c2.5-3.1,3.1-7.2,4.1-11
				s2.7-7.9,6.3-9.5c5.2-2.4,11.3,1.8,13.4,7.1s1.3,11.2,0.9,16.8c-0.3,4.3-0.3,8.7,0.9,12.8s4,8,7.9,9.8
				C926.7,408.3,930.8,408.3,934.3,406.7z"/>
			<path class="st17" d="M902.9,401.3c0.8-1,1.3-2.3,1.4-3.5c-4.9,3.7-9.8,7.5-15.4,9.9c-2.3,0.9-4.7,1.5-7.1,1.7
				c2.5,0.4,4.9,1.6,6.6,3.4c0.3-0.1,0.5-0.1,0.8-0.2C894.9,410.4,899.8,406.5,902.9,401.3z"/>
			<path class="st20" d="M1193,534.4c3.8,0.5,7.2,2.4,9.7,5.3c-0.5-3.6-1.8-7-3.6-10.1c2.9-1.3,6-2.4,9.1-3.2
				c-5.2-0.3-10.1-2.8-13.5-6.8c0.2,2.1,0.6,4.1,1.2,6.1c-13.9,9.2-43.2,12.5-73,14.7c1.4,2.4,7.8,0.9,10,0.8
				c17.4-1.1,34.7-3.8,52-6.4C1187.5,534.4,1190.3,534.2,1193,534.4z"/>
			<path class="st17" d="M1235.9,485.5c-8.1-2.7-16.8-2.9-25.2-2.3c-5,0.4-10.3,1.1-14.8,3.3c-0.2,1.3-0.2,2.7,0,4
				c22.5-5.6,46.7-6,55.1,12c0-0.8,0.1-1.6,0.1-2.4l0,0c0.1-1.5,0.1-3,0.2-4.4C1247.2,490.9,1241.9,487.4,1235.9,485.5z"/>
			<path class="st17" d="M1223.2,353.1c-0.3-0.3-0.7-0.5-1.1-0.7c-0.2,0.4-0.4,0.8-0.5,1.1c-1.5,3.4-6.6,5.9-11.9,7.8
				c-4,5.3-6.9,11.8-7.1,17.2c-0.2,1.9,0.3,3.9,1.4,5.5l4.8-1.6c-3-1.5-4.5-3.8-2.5-8C1209.8,367,1215.9,359.7,1223.2,353.1z"/>
			<path class="st17" d="M1275.2,362.8c-0.1-0.5-0.2-0.9-0.3-1.4s-0.2-0.7-0.3-1s-0.2-0.8-0.4-1.3c-0.3-1-0.7-2.1-1.1-3.1l0,0
				c-0.7-1.3-1.5-2.5-2.5-3.6c-4-4.5-4.9-16.5-2.9-22.1c-0.8-3.6,0.8-7.6,7.2-8.4c0.4-0.1,0.8-0.1,1.2-0.1c-2-0.5-4.1-0.3-6,0.5
				c-7.2,2.7-8.7,11.1-8.6,17.9c-0.1,2.4,0.3,4.8,1.2,7c0.9,1.6,1.9,3.2,3,4.7c1.5,2.4,2.5,5.1,4.2,7.4c0.3,0.4,0.7,0.9,1.1,1.2
				c-3.4,5.5-3,12-3.7,18.1c-1,7.8-5.4,14.2-8,21.5c-1.6,4.9-2.7,9.9-3.2,15c-2.4,16.9-4.4,33.8-6.4,50.8c-1,6.8-1.5,13.7-1.5,20.6
				c0.1,4.5,0.6,8.9,1.4,13.2c0.5,0.9,1,1.8,1.5,2.8c0-0.8,0.1-1.6,0.1-2.4l0,0c0.9-22.5,5.2-40.8,8.3-59.4
				c3.2-19.3,0.4-27.5,6.8-43.2C1272.2,382.6,1276.5,370.8,1275.2,362.8L1275.2,362.8z"/>
			<ellipse class="st21" cx="1407.8" cy="432.9" rx="40.8" ry="5.3"/>
			<path class="st11" d="M1310,242.2c-3.2,0.7-3.5,6.3-3.6,6.6h-0.1c-0.6-0.7-1.2-1.3-1.9-1.9c-3.6-3.4-8.9-7.2-11.7-9.8
				c-5.1-4.8-9.5-9.1-6.5-11.2c1.7-1.2,6.3,2,6.3,2c1,0-0.3-1.9,0.5-2.7c1.4-1.5,3,2,5.2,6c1.1,2.4,2.7,4.6,4.7,6.4
				C1305.1,239.4,1307.4,241,1310,242.2z"/>
			<path class="st12" d="M1448.4,226.8c-5.1,1.1-14.9,7.2-25.9,8.4c-11.7,6.7-25.7,6.7-26.6,7s-2.3,1.4-2.8,6
				c-0.7,3.5-3.7,10-3.7,13.8s1.1,4.4,1.4,8c1.8,1,2.7-0.4,4.3-0.2s2.4,2,3.5,2c4.4,0.8,7.2,0.6,9.2,3.2h-0.1
				c-0.6-0.2-1.2-0.4-1.8-0.4c-6.8-0.9-11.3,7-13,13.1c-1.4,5.1-5.5,17.4-9,23.8c-1.1,2-2.1,3.4-3,3.9c-7.1-9.6-20.4-33-25.8-39.3
				c-5.2-6.1-5.2-12.2-2.7-16.7c-4.8,0.8-12.2-0.5-18.3-0.5c-3.7,0-7.3-0.4-10.9-1.3c-3.7-0.3-12.1-4.4-16.8-8.6
				c0-0.3,0.3-5.9,3.6-6.6c6.4,1.4,10,2,14.8,4.6c5.6-0.5,11.1-0.5,15.2,0.6c6.1-2.9,12.7-4.6,19.5-4.9c0,0-2.5,5.5,3.3,4
				c6.6-2.8,11.8-8.1,14.4-14.8c3.1-2.2,6.6-3.7,10.2-4.4c6.2-1.3,24-1,29.8-1.9c2.4-0.4,10.2-2.9,10.2-2.9c6.3-2.3,12.9-3.6,19.6-4
				C1448.4,219.1,1449.4,223.6,1448.4,226.8z"/>
			<path class="st22" d="M1448.4,226.8c-2.7,0.8-5.3,1.8-7.8,3c-5,2.1-11.3,4.7-18.1,5.4c-11.7,6.7-25.7,6.7-26.6,7s-2.3,1.4-2.8,6
				c-0.7,3.5-3.7,10-3.7,13.8s1.1,4.4,1.4,8c1.8,1,2.7-0.4,4.3-0.2s2.4,2,3.5,2c4.4,0.8,7.2,0.6,9.2,3.2h-0.1
				c-0.6-0.2-1.2-0.4-1.8-0.4c-0.4-0.1-0.9-0.1-1.3-0.1l0,0c-6,0.2-10.1,7.5-11.7,13.2c-1.4,5.1-5.5,17.4-9,23.8
				c-1.1,2-2.1,3.4-3,3.9c-7.1-9.6-20.4-32.9-25.8-39.2l0,0c-0.7-0.8-1.3-1.6-1.8-2.5c-1.9-2.8-2.8-6.2-2.4-9.6l0,0
				c0.2-1.6,0.7-3.2,1.6-4.7c-4.8,0.8-12.2-0.5-18.3-0.5c-3.7,0-7.3-0.4-10.9-1.3c-0.5-0.1-1.1-0.1-1.6-0.3l0,0l0,0
				c-5.6-1.7-10.7-4.5-15.2-8.3c0-0.3,0.3-5.9,3.6-6.6c6.4,1.4,10,2,14.8,4.5c5.6-0.5,11.1-0.5,15.2,0.7c6.1-2.9,12.7-4.6,19.5-4.9
				c0,0-2.5,5.5,3.3,4c6.6-2.8,11.8-8.1,14.4-14.8c3.1-2.2,6.6-3.7,10.2-4.4c6.2-1.3,24-1,29.8-1.9c2.4-0.4,10.2-2.9,10.2-2.9
				c6.3-2.3,12.9-3.6,19.6-4C1448.4,219.1,1449.4,223.6,1448.4,226.8z"/>
			<path class="st23" d="M1407.9,274.8h-0.1H1407.9L1407.9,274.8L1407.9,274.8z"/>
			<path class="st11" d="M1377.2,231.7c-2.6,6.7-7.8,12-14.4,14.8c-5.8,1.5-3.3-4-3.3-4s3.9-3.7,2.4-8.3s-4.2-3.4-7.9-3.8
				c-4.6-0.5-0.2-4.5-2.3-7.8c-3.9,0.2-0.6-3.1,1.7-7.4c-1.4-1.1-1.1-5.8,3.4-9.2v0c0,0,0,0.1,0,0.1c-0.4,3.4,0.2,5.6,3.4,7.1
				c0.8,0.7-1.4,6.5,0.6,7.6c1-0.1,0.8-5.9,3.9-7.3c3.7-1.5,6.2,2.3,5.3,6.1c-1.2,4.8-0.9,8,1.2,8.9l0,0c1.1,0.4,2.3,0.4,3.3,0
				C1374.7,228.4,1374.9,231.5,1377.2,231.7z"/>
			<path class="st15" d="M1391.8,210.2c-0.1,7.1-7,7.3-9.9,5.4c-0.5,6-3.2,12.4-7.2,12.8c-1.1,0.1-2.2,0.1-3.3,0l0,0
				c-2.2-0.9-2.5-4-1.2-8.9c1-3.8-1.6-7.6-5.3-6.1c-3.1,1.4-2.9,7.2-3.9,7.3c-2-1.1,0.2-6.9-0.6-7.6c-3.3-1.5-3.8-3.8-3.4-7.1
				c0,0,0-0.1,0-0.1v0c3.4-3.2,8-4.9,12.7-4.6c7.9,0.9,8.7,6,10.2,6.2C1383.7,200.5,1392,202.9,1391.8,210.2z"/>
			<path class="st11" d="M1474.1,204.3c-1.6,3.4-1.5,3.4-5,6s-6.8,5.9-8.3,9.2c-0.5,0.7-0.4,1.8,0.4,2.3c0.1,0.1,0.3,0.2,0.4,0.2
				c-6.8,2.2-12.3,4.5-13,4.7c1-3.2,0-7.7-1.3-8.3c3.9-0.3,7.8-0.9,11.6-2c2-0.6,6-1.6,6.7-3.4c1-2,2.4-3.7,4.2-5.1
				C1470.9,206.8,1472.8,205,1474.1,204.3z"/>
			<path class="st11" d="M1485.2,203.1c-0.3,0.3-0.6,0.7-0.9,1.1c0.2-0.9-0.6-1.4-2-1.3c-2,0.2-2.5,1.5-2.3,2.6
				c-0.6,1.8-0.3,5.6,0.9,7c0.3,0.3,0.6,0.7,0.8,1.1l0,0c0.2,0.5,0.4,1.1,0.6,1.7c0.6,2.5-0.8,6.4-2.8,11.3s-1.1,7.5-2.2,13.6
				c-1,5.9-2.3,11.6-2.6,18.7l0,0v0.8c-2.6-5.7-10.3-5.6-17.3-3.8c-0.6-3.9,6.7-17.6,8.8-22.8s2.4-9.5,0.4-10.1
				c-1.2-0.4-3.7-0.4-5.2-1.1c-0.9-0.3-1.3-1.3-1-2.1c0.1-0.1,0.1-0.3,0.2-0.4c1.6-3.3,4.8-6.6,8.3-9.2s3.4-2.7,5-6l0,0l0,0
				c1.7-3.4,4.7-4.6,6.7-3.6c1-0.4,2.2-0.4,3.2,0C1483.8,200.8,1486,202.1,1485.2,203.1z"/>
			<path class="st11" d="M1469.4,223.3c0.1,0.3,0.1,0.7,0,1.1c-0.4,2.8-1.1,5.6-2,8.3c-0.8,2.1-1.9,4-3.5,5.6
				c0.9-1.9,1.7-3.6,2.2-4.9c2.2-5.2,2.4-9.5,0.4-10.1c-1.2-0.4-3.7-0.4-5.2-1.2c-0.9-0.3-1.3-1.3-1-2.1c0.1-0.1,0.1-0.3,0.2-0.4
				l0.1-0.2l0,0c1.1-0.8,2.3,1.6,3.6,2c1.5,0.5,3.1,0.5,4.5,1.3C1469,222.8,1469.2,223.1,1469.4,223.3z"/>
			<path class="st11" d="M1482.3,215.5l0.1,0.4c-0.7-0.1-1.3-0.5-1.7-1.1c-0.5-0.7-0.8-1.6-1.3-2.3c-0.3-0.5-0.7-1-0.9-1.5
				c-0.3-0.7-0.4-1.4-0.4-2.2c0-2.1,0.4-4.8,2.7-5.6c0.6-0.3,1.3-0.3,1.9-0.2h-0.4c-2,0.2-2.5,1.5-2.3,2.6c-0.6,1.8-0.3,5.6,0.9,7
				c0.3,0.3,0.6,0.7,0.8,1.1l0,0C1481.9,214.3,1482.1,214.9,1482.3,215.5z"/>
			<path class="st11" d="M1484.2,204.3c-0.1,0.5-0.4,0.9-0.8,1.3c-1.4,1.6-1.1,3.4-1.1,5.7c0,2.3,0.8,3.6-0.1,4.2
				c-0.1-0.6-0.3-1.2-0.6-1.7l0,0c-0.2-0.4-0.5-0.8-0.8-1.1c-1.3-1.4-1.6-5.2-0.9-7c-0.2-1.1,0.2-2.4,2.3-2.6
				C1483.7,202.8,1484.4,203.4,1484.2,204.3z"/>
			<path class="st24" d="M1469.6,281.2c-7.5,6.7-16.7,9.5-23,11.2c-5.7,1.6-19.9,6.1-29.4,8.2c-1.1,0.2-2.1,0.5-3.1,0.6
				c0,1.5,2,8,1.8,18c-0.3,14.3-2.5,29.9-2.9,48.6c0.1,2.7,3.3,8.2,3.8,12c0,0.3,0.1,0.5,0.1,0.8l0,0c0,0.4,0,0.9-0.1,1.3
				c-0.2,0.3-0.4,0.6-0.7,0.8l-0.4,0.3c-0.3,0.2-0.6,0.3-0.9,0.5c-0.1,0.1-0.2,0.1-0.3,0.2l-0.4,0.2l-0.3,0.1l-0.3,0.1l-0.3,0.1
				c-0.5,0.2-1.1,0.3-1.6,0.4l-0.7,0.1c-0.3,0.1-0.7,0.1-1,0.2l-0.6,0.1l-0.5,0.1h-0.1l-0.6,0.1h-0.3h-0.3c-0.4,0-0.9,0.1-1.3,0.1
				h-0.3c-1.4,0.1-2.7-0.1-4-0.6c-0.1-0.1-0.2-0.1-0.2-0.2c-0.2-0.6-0.2-1.1-0.3-1.7c-0.2-2.1-0.5-5.5-1.1-8.5
				c-1.4-7.1-3.7-9-5.7-14.3s-2.6-8.3-4.9-19.2c-1.6-7.9-2.8-15.9-3.5-23.9c0-2-0.6-4-1.8-5.6c3.5-6.4,7.6-18.7,9-23.8
				c1.7-6.1,6.2-14,13-13.1l1.8,0.4c0,0,0.1,0,0.1,0l0,0l0.6,0.1c7.8-3.8,39.5-1.5,48.8-7.7c-0.8-2.6-0.3-6.2,0-11.1
				c7.1-1.8,14.7-1.9,17.3,3.8v-0.8C1475,261.2,1476.5,275,1469.6,281.2z"/>
			<path class="st23" d="M1407.9,274.8h-0.1H1407.9L1407.9,274.8L1407.9,274.8z"/>
			<path class="st11" d="M1421.1,432.2c-0.2,1.6-1.2,2.7-3.3,2.7c-5.2-0.1-10.6-1.5-15.9-1.1c-5,0.4-9.9,0.5-13.9,1l-0.7,0.1
				c-4.2,0.5-3.6-2.8-1.7-3.3s14-4.4,17.9-9.1c1.8-2.2,3.2-9.4,1.8-20c-0.8-6.1-2.8-10.9-3.4-15c-0.1-0.8-0.2-1.7-0.2-2.6
				c1.3,0.5,2.6,0.7,4,0.6h0.3c0.4,0,0.9,0,1.3-0.1h0.3h0.3l0.6-0.1h0.1l0.5-0.1l0.6-0.1c0.3,0,0.7-0.1,1-0.2l0.7-0.1
				c0.6-0.1,1.1-0.3,1.6-0.4l0.3-0.1l0.3-0.1l0.3-0.1l0.4-0.2c0.1,0,0.2-0.1,0.3-0.2c0.3-0.1,0.6-0.3,0.9-0.5
				c0.1-0.1,0.3-0.2,0.4-0.3c0.3-0.2,0.5-0.5,0.7-0.8c0.1-0.4,0.1-0.9,0.1-1.3c0.2,0.8,0.4,1.6,0.5,2.4c0.5,4.5,0.6,9,0.2,13.4
				c-0.7,10.1-1.4,14.4-0.5,21.6c0.1,0.9,0.3,1.8,0.5,2.8c1,5.7,3.4,8.1,3.6,10.2C1421.1,431.6,1421.1,431.9,1421.1,432.2z"/>
			<path class="st17" d="M1421.1,432.2c-0.2,1.6-1.2,2.7-3.3,2.7c-5.2-0.1-10.6-1.5-15.9-1.1c-5,0.4-9.9,0.5-13.9,1
				c1.6-2.2,5.7-2.3,9-2.9c2.7-0.5,4.7-1.1,7.6-0.6c2.2,0.5,4.4,0.8,6.6,1c2.5,0.1,4.4,0,6.8,0.2
				C1418.8,432.3,1420.2,431.7,1421.1,432.2z"/>
			<path class="st17" d="M1414.2,385.3c0.6-0.3,1.2-0.6,1.8-1c0.5-0.3,0.9-0.7,1.3-1.2c-0.1-0.8-0.2-1.6-0.5-2.4
				c0,0.4,0,0.9-0.1,1.3c-0.2,0.3-0.4,0.6-0.7,0.8c-0.1,0.1-0.3,0.2-0.4,0.3c-0.3,0.2-0.6,0.3-0.9,0.5c-0.1,0.1-0.2,0.1-0.3,0.2
				l-0.4,0.2l-0.3,0.1l-0.3,0.1l-0.3,0.1c-0.5,0.2-1.1,0.3-1.6,0.4l-0.7,0.1c-0.3,0.1-0.7,0.1-1,0.2l-0.6,0.1l-0.5,0.1h-0.1
				l-0.6,0.1h-0.3h-0.3c-0.4,0-0.9,0.1-1.3,0.1h-0.3c-1.4,0.1-2.7-0.1-4-0.6c0,0.9,0.1,1.7,0.2,2.6
				C1405.2,388.4,1410.9,387,1414.2,385.3z"/>
			<path class="st18" d="M1471.1,271.3c-10,10.3-22.9,17.2-36.9,19.9c-5.4,1-16.6,1-20.1,6c-0.4,0.6-0.8,1.2-1,1.8
				c-1.5,0.8-2.5,3.2-3,5.9c-1.5,8.3-1.2,17.3-1.6,25.7c-0.7,12.3-1.3,24.8,1.3,36.9c0.9,4.1,2.1,8.1,3.2,12.2
				c0.4,1.4,0.7,2.8,1,4.2c0.1,0.5,0.2,1,0.3,1.4c0.5,2.5,0.8,5,0.9,7.5c0.3,8.5-2.1,18,1.9,25.2c-1-7.1-0.2-11.5,0.5-21.6
				c0.4-4.5,0.3-9-0.2-13.4c0.1-1.1-0.1-2.2-0.5-3.2c-0.6-3.8-3.7-9.3-3.8-12c0.4-18.7,2.6-34.3,2.9-48.6c0.1-5.7-0.4-11.4-1.6-17
				l0,0c0-0.1,0-0.2-0.1-0.3V302v-0.2v-0.1c0,0,0-0.1,0-0.2v-0.1c0-0.1,0-0.1,0-0.2c1-0.2,2-0.4,3.1-0.6c9.5-2.1,23.8-6.6,29.4-8.2
				c6.3-1.8,15.6-4.5,23-11.2c3.6-3.2,4.9-8.4,5.3-13C1473.5,269,1472.2,270.1,1471.1,271.3z"/>
			<path class="st19" d="M1406,274.4c-6.8-0.9-11.3,7-13,13.1c-1.4,5.1-5.5,17.4-9,23.8c1.2,1.6,1.8,3.6,1.8,5.6
				c0,0.8,0.3,3.6,0.8,7.2c0.8-0.7,1.4-1.5,1.9-2.4c7.2-12.5,3.1-28.8,11.9-40.4c0.8-1,4.3-3.7,7.4-6.4L1406,274.4z"/>
			<path class="st17" d="M1393.1,248.2c-0.7,3.5-3.7,10-3.7,13.8s1.1,4.4,1.4,8c1.8,1,2.7-0.4,4.3-0.2s2.4,2,3.5,2
				c4.4,0.8,7.2,0.6,9.2,3.2h-0.1c-0.6-0.2-1.2-0.4-1.8-0.4c-0.4-0.1-0.9-0.1-1.3-0.1l0,0c-6.5-1.5-13.4-0.8-20.1-0.1
				c1.9-0.2,1.4-13.3,1.7-14.9c0.7-4.1,1.8-8.1,3.3-11.9c3.1-7.9,12.3-7.1,19.5-9.1c9-2.5,17.7-6,26.8-7.8c1.6-0.3,3.1-0.5,4.7-0.7
				c-5,2.1-11.3,4.7-18.1,5.4c-11.7,6.7-25.7,6.7-26.6,7S1393.6,243.6,1393.1,248.2z"/>
			<path class="st17" d="M1365.3,269.6c-0.4,2.2-1.8,4.1-3.7,5.1c-2,1-4.1,1.4-6.3,1.2h-0.1l0,0c-0.7-0.8-1.3-1.6-1.8-2.5
				c1.8,1,3.9,1.3,5.9,0.8C1361.7,273.5,1363.9,271.9,1365.3,269.6z"/>
			<path class="st17" d="M1362.8,246.5c5.8-2.5,10.5-6.9,13.3-12.5c0-0.1,0-0.3,0-0.4c-2.1,4.7-6.5,7.8-10.7,10.6
				c-0.8,0.6-1.6,1-2.6,1.3c-0.9,0.3-2,0-2.7-0.6c-0.5-0.7-0.7-1.7-0.5-2.6l-0.2,0.2C1359.4,242.5,1357,248,1362.8,246.5z"/>
			<path class="st17" d="M1354.7,258c-6.5-1.2-18.2,1.1-27.1-0.5c-1.9-0.3-4-0.9-5.9-0.4h-0.1l0,0c0.5,0.1,1,0.2,1.6,0.3
				c3.6,0.9,7.2,1.3,10.9,1.3c6.1,0,13.5,1.3,18.3,0.5c-0.8,1.4-1.4,3-1.6,4.7C1351.8,261.6,1353.1,259.7,1354.7,258z"/>
			<path class="st17" d="M1449.8,226.3c0-0.3,0.1-0.5,0.1-0.8c0.1-0.9,0.2-1.7,0.1-2.6c-0.1-1.6-0.6-3.2-1.5-4.5l-1.5,0.1
				c1.3,0.6,2.3,5.2,1.3,8.3C1448.6,226.7,1449.1,226.6,1449.8,226.3z"/>
			<path class="st17" d="M1310,242.2c0,0-0.8-0.4-1.9-1c-0.5,0.5-1,1.2-1.3,1.9c-0.4,1.1-0.7,2.2-0.8,3.3c0,0.3-0.2,1-0.3,1.7
				c0.3,0.3,0.5,0.5,0.7,0.8h0.1C1306.5,248.6,1306.8,243,1310,242.2z"/>
			<path class="st17" d="M1375,229.7c-0.1-0.4-0.2-0.8-0.3-1.3c-1.1,0.4-2.3,0.4-3.3,0l0,0c-2.2-0.9-2.5-4-1.2-8.9
				c1-3.8-1.6-7.6-5.3-6.1c-3.1,1.4-2.9,7.2-3.9,7.3c-2-1.1,0.2-6.9-0.6-7.6c-3.3-1.5-3.8-3.8-3.4-7.1c0,0,0-0.1,0-0.1v0
				c-0.2,0.2-0.4,0.3-0.6,0.5c-0.7,2.2-0.2,5.2,1.7,6.5c0.4,0.2,0.8,0.5,1.1,0.8c0.7,0.8,0.5,1.9,0.5,3c-0.1,1.6,0.1,3.2,0.6,4.7
				c0.1,0.2,0.2,0.4,0.4,0.5s0.4-0.1,0.6-0.3c0.7-1,1.1-2.2,1.3-3.5c0.2-1.2,0.9-2.3,2-3c1.6-0.7,3.6,0.6,4.2,2.2s0.4,3.5,0.3,5.3
				c-0.1,1.3,0,2.7,0.3,4c0.3,1.3,1.3,2.4,2.5,3.1C1372.6,230.3,1373.9,230.2,1375,229.7z"/>
			<path class="st17" d="M1365.1,228c0.2-0.3,0.4-0.7,0.4-1.1c-1.5,1.2-3.1,2.3-4.8,3.1c-0.7,0.3-1.5,0.5-2.2,0.5
				c0.8,0.1,1.5,0.5,2.1,1.1l0.2-0.1C1362.5,230.9,1364.1,229.7,1365.1,228z"/>
			<path class="st20" d="M1456.5,270c1.2,0.2,2.2,0.8,3,1.7c-0.2-1.1-0.5-2.2-1.1-3.2c0.9-0.4,1.9-0.7,2.9-1
				c-1.6-0.1-3.2-0.9-4.3-2.1c0.1,0.7,0.2,1.3,0.4,1.9c-4.4,2.9-13.6,3.9-23,4.6c0.4,0.8,2.4,0.3,3.2,0.2c5.5-0.3,10.9-1.2,16.4-2
				C1454.7,270,1455.6,269.9,1456.5,270z"/>
			<path class="st17" d="M1470,254.5c-2.6-0.8-5.3-1-8-0.7c-1.6,0-3.2,0.4-4.7,1c-0.1,0.4-0.1,0.8,0,1.3c7.1-1.8,14.7-1.9,17.3,3.8
				v-0.8l0,0c0-0.5,0-0.9,0.1-1.4C1473.5,256.3,1471.8,255.2,1470,254.5z"/>
			<path class="st17" d="M1466,212.8c-0.1-0.1-0.2-0.2-0.4-0.2l-0.2,0.4c-0.5,1.1-2.1,1.9-3.7,2.5c-1.2,1.6-2,3.4-2.2,5.4
				c-0.1,0.6,0.1,1.2,0.4,1.7l1.5-0.5c-0.9-0.3-1.3-1.3-1-2.1c0.1-0.1,0.1-0.3,0.2-0.4C1462,217,1463.8,214.7,1466,212.8z"/>
			<path class="st17" d="M1482.4,215.9l-0.1-0.4c0-0.1-0.1-0.2-0.1-0.3l-0.1-0.4c-0.1-0.3-0.2-0.7-0.3-1l0,0
				c-0.2-0.4-0.5-0.8-0.8-1.1c-1.3-1.4-1.6-5.2-0.9-7c-0.2-1.1,0.3-2.4,2.3-2.6h0.4c-0.6-0.2-1.3-0.1-1.9,0.2
				c-2.3,0.8-2.8,3.5-2.7,5.6c0,0.8,0.1,1.5,0.4,2.2c0.3,0.5,0.6,1,0.9,1.5c0.5,0.8,0.8,1.6,1.3,2.3c0.1,0.1,0.2,0.3,0.3,0.4
				c-1.1,1.7-0.9,3.8-1.2,5.7c-0.3,2.5-1.7,4.5-2.5,6.8c-0.5,1.5-0.8,3.1-1,4.7c-0.8,5.3-1.4,10.7-2,16c-0.3,2.2-0.5,4.3-0.5,6.5
				c0,1.4,0.2,2.8,0.5,4.2c0.2,0.3,0.3,0.6,0.5,0.9v-0.8l0,0c0.3-7.1,1.6-12.8,2.6-18.7c1-6.1,0.1-8.7,2.2-13.6
				C1481.4,222.2,1482.8,218.4,1482.4,215.9L1482.4,215.9z"/>
		</g>
	</g>
</g>
</svg>
