<svg xmlns="http://www.w3.org/2000/svg" viewBox="0 0 993.6 1058.83"><defs><style>.cls-1{fill:#3c7168;}.cls-2{fill:#fff;stroke:#fff;stroke-miterlimit:10;}</style></defs><g id="Layer_2" data-name="Layer 2"><g id="Ñëîé_1" data-name="Ñëîé 1"><path class="cls-1" d="M993.6,347.89c-29.13-.52-61.94.73-85.92,14.82a22.35,22.35,0,0,0-8.88,28.6,22.64,22.64,0,0,0,4.48,6.45c-18.77-9.6-42,9-45.29,29.81s6.56,41.23,16.14,60c-35.8-29.76-159-29.94-123,7.72l-39.8-5.21c-24.65-3.23-42.29,23.38-29.58,44.74,13,21.79,31.1,40.93,51.29,56.46,34.78,26.74,75.63,44.22,116,61.41-27.4-.56-52.8-5.49-66.12,15.81s14.31,49.42,35.38,63.09c-14.43-7.4-39.75.8-39.94,17s14.78,29.35,25,42,24.39,37.83,24.83,54l-.46-.21C790,827.6,750.52,791.13,713,787.8c-37.71-3.34-79.58,25.08-78.25,62.91-6.1-35.82-13.27-73.88-38.2-100.31s-74.1-33-95.29-3.49c-10.7,14.92-11.63,34.63-10.49,53A305.45,305.45,0,0,0,520,912.56c-11.31-20.3-42.24-26-60-11s-17.52,46.39.52,61c-20.07-11.17-42.22,12.9-48.07,35.12s-7.76,49.07-27.3,61.15c3.63-24.79,7-51.55-4.83-73.67S335,951.36,318,969.71c19-24.43,9.92-65.29-17.62-79.39s-66,2.39-74.73,32.07c15.32-62,25.54-138.08,10.12-202.37-6.54-27.24-39.56-37.94-60.9-19.8l-41.09,34.94c4.46-11.52,7.05-22.74-4.21-26.26s-23,2.8-33.1,8.88L6.27,772.07c11.35-22.78,32.23-39.65,43.93-62.26S59,652.64,34.9,644.42c22,5.89,38.63-26.74,26.4-45.93s-39-23.45-61.3-19A243,243,0,0,0,132.76,477.2C141,464,148.2,447.94,143.22,433.14c-6.43-19.11-29.32-26.48-49.3-29.21S51.47,399.31,38.34,384Q99,373,160.11,364.68c34.87-4.73,69.81-8.53,104.81-12.14,14.4-1.49,34.29-2.31,43-13.52,2.81-3.62,4.45-8.34,4.35-14.51-.23-14.69-6.53-30.57-8.63-45.22a392.49,392.49,0,0,1-3.91-48.05c-.58-28.77-1.26-66.56,9.44-93.87-6.45,17.52,12.13,36.57,30.95,37.22,19,.65,36.07-11.14,50.54-23.5a372.33,372.33,0,0,0,65.08-72.27c13.68,15.49,39.31,14.24,57,3.48s29.58-28.54,42.25-44.87S582.81,5,602.88,0c-9,18.28-18.12,37.69-16.5,58S605,98.8,625.17,96.48C600,120.8,572.77,155.8,588.68,187c9,17.66,30,26.61,49.78,26.91s39-6.51,57.63-13.23L823.4,154.76c-21,16.08-41.51,28.39-39.28,52.62s19.75,44.93,40.69,57.32,45.15,17.83,68.91,23.11C880,320.18,954.66,340.37,993.6,347.89Z"/><path class="cls-2" d="M139.77,615.92a3.52,3.52,0,0,0-.44,1.49,2.92,2.92,0,0,0,.15,1.2l.79,2.16c.45,1.46.93,2.91,1.4,4.36s.83,2.94,1.28,4.39l.57,2.2.6,2.2a140.35,140.35,0,0,1,3.47,17.83,143,143,0,0,1,1.11,18.18c0,1.52-.06,3.05-.1,4.58l-.28,4.58c-.17,1.52-.35,3-.37,4.59a24.35,24.35,0,0,0,.08,4.74,23.89,23.89,0,0,0,2-4.36c.47-1.51.79-3,1.12-4.58l.81-4.65c.19-1.56.41-3.13.59-4.7a92.22,92.22,0,0,0,0-18.94,93.6,93.6,0,0,0-3.79-18.6l-.78-2.24-.81-2.23c-.6-1.47-1.24-2.92-1.86-4.37s-1.4-2.83-2.11-4.24L142,617.45a3,3,0,0,0-.81-.92A3.34,3.34,0,0,0,139.77,615.92Z"/><path class="cls-2" d="M124,634.21a2.9,2.9,0,0,0-.81-1.06,1.8,1.8,0,0,0-.86-.39l-1.74-.27c-1.16-.14-2.33-.26-3.5-.38s-2.34-.16-3.51-.21h-3.53a82.2,82.2,0,0,0-14,1.73,80.65,80.65,0,0,0-13.47,4c-1.09.44-2.16.91-3.24,1.36l-3.18,1.46a32.84,32.84,0,0,0-3.09,1.67,14.12,14.12,0,0,0-2.73,2.37,14.52,14.52,0,0,0,3.56-.45,29.68,29.68,0,0,0,3.29-1l3.27-1c1.1-.29,2.2-.56,3.29-.86,4.4-1.1,8.81-2,13.23-2.82s8.89-1.33,13.37-1.81l1.68-.17,1.68-.19c1.12-.1,2.25-.23,3.38-.35s2.26-.2,3.39-.32l1.71-.11a2,2,0,0,0,.87-.32A3.24,3.24,0,0,0,124,634.21Z"/><path class="cls-2" d="M308.24,339.21c0,3.23.19,6.42.48,9.6s.68,6.34,1.13,9.49l2.61,18.91,2.43,19,2.28,19,2.2,19,2.09,19,4,38,7.78,76,2,19,2,19,2.11,19,2.18,19c5.95,50.64,13.06,101.2,22.82,151.3q7.31,37.56,16.8,74.66a697.35,697.35,0,0,0,22.66,73.06c-7.06-24.51-13.87-49-19.92-73.75s-11.22-49.65-15.8-74.68l-3.33-18.8-3.1-18.83-2.9-18.87L356,718.33l-2.59-18.91L351,680.48l-2.31-19-2.24-19-2.15-19-2.07-19-4-38-3.95-38q-2-19-4.1-38l-2.12-19-2.26-19-2.35-19-2.47-19-2.64-18.95-2.79-18.92-3-18.89c-.52-3.15-1.14-6.28-1.84-9.39S309.26,342.27,308.24,339.21Z"/><path class="cls-2" d="M307.76,339.2c3.11.58,6.21.92,9.31,1.19s6.21.43,9.31.52c6.21.18,12.42.45,18.63.67l4.66.18,4.65.22,9.31.43c6.21.28,12.42.63,18.62,1l9.31.49,9.31.54c6.2.36,12.4.7,18.61,1.09l37.22,2.3,37.24,2.33,18.62,1.1,18.63,1.07c12.42.72,24.85,1.33,37.28,1.92l18.64.81,18.66.67c6.22.21,12.45.35,18.67.53l4.67.12,4.67.06,9.34.13c6.22.1,12.44.13,18.66.18l18.66.1c6.22,0,12.44,0,18.66,0l9.34-.06,4.67,0,4.67-.07c6.22-.09,12.44-.16,18.67-.34l9.33-.23,9.34-.33c6.22-.19,12.44-.54,18.66-.85,3.11-.14,6.22-.36,9.33-.56l9.32-.62c3.11-.23,6.21-.51,9.31-.77l4.66-.39,2.33-.19,2.32-.23,9.3-1,4.64-.48,4.64-.58c24.73-3,49.36-7.29,73.32-14.09-24.43,4.78-49,8.62-73.64,11.28l-4.62.52-4.64.41-9.27.83c-.77.07-1.55.15-2.32.2l-2.32.17-4.65.32c-3.09.21-6.18.45-9.28.64l-9.3.49c-3.1.16-6.2.34-9.3.43-6.2.22-12.4.5-18.61.62l-9.31.23-9.32.13c-6.2.11-12.42.12-18.63.14h-9.31l-9.32,0-18.64-.14L661.83,352c-6.22-.08-12.44-.15-18.64-.29-12.42-.21-24.84-.58-37.25-1-49.66-1.74-99.29-5-149-7.72l-18.63-1-18.64-.92c-6.21-.31-12.42-.56-18.64-.84l-9.32-.41-9.33-.34c-6.21-.22-12.43-.45-18.65-.6l-9.33-.26-4.67-.13-4.66-.09C332.67,338.36,320.22,337.45,307.76,339.2Z"/><path class="cls-2" d="M307.76,339.2a71.84,71.84,0,0,0-5.74,12l-2.44,6.13c-.41,1-.8,2-1.22,3.06l-1.3,3-2.59,6.06-.65,1.51-.68,1.5-1.37,3-2.73,6-2.86,5.95c-1,2-1.88,4-2.85,5.94l-3,5.89-1.48,2.95-.74,1.47-.76,1.46L274.32,411c-2,3.91-4.17,7.74-6.27,11.6l-1.57,2.9c-.52,1-1.07,1.92-1.61,2.88l-3.24,5.74c-17.41,30.57-36.47,60.2-56.54,89.13l-3.77,5.42-3.81,5.4-3.8,5.4-3.84,5.37L186,550.18l-3.88,5.35c-2.59,3.56-5.18,7.12-7.81,10.65s-5.23,7.09-7.87,10.61-5.26,7.08-7.92,10.58q-7.95,10.56-16,21Q126.34,629.32,109.82,650c-11,13.75-22.13,27.45-32.69,41.61,12.14-12.83,23.59-26.26,34.87-39.83s22.48-27.21,33.49-41c22-27.59,43.4-55.73,63.64-84.69,2.53-3.62,5.06-7.24,7.54-10.9s5-7.29,7.43-11q7.4-11,14.49-22.19t13.94-22.57l3.39-5.7,1.68-2.85,1.64-2.88,3.29-5.76,1.64-2.89,1.6-2.9c4.3-7.73,8.48-15.53,12.44-23.44l3-5.93.74-1.49.72-1.5,1.43-3,2.86-6c.94-2,1.84-4,2.74-6l2.71-6.06,2.59-6.11,1.29-3.05.65-1.53.61-1.54,2.44-6.18,1.22-3.08c.4-1,.77-2.08,1.15-3.11l2.29-6.23.55-1.57c.18-.52.34-1.05.49-1.58.32-1.07.61-2.13.88-3.21A48.14,48.14,0,0,0,307.76,339.2Z"/><path class="cls-2" d="M308.24,339.21a40.22,40.22,0,0,0,6-1.12c2-.57,3.88-1.22,5.77-1.95l5.59-2.4,5.52-2.57a216.41,216.41,0,0,0,21.24-11.88c6.85-4.35,13.45-9.08,19.86-14.05l4.77-3.77,4.69-3.87,4.6-4,4.53-4.05q9-8.18,17.5-16.83T425,255.11c5.44-6,10.76-12,16-18.14s10.48-12.24,15.69-18.39c20.74-24.57,42.06-48.78,61.67-74.44,9.8-12.83,19.15-26,27.72-39.72s16.32-27.95,22.13-43c-7.69,14.18-15.72,28.06-24.51,41.5s-18.37,26.32-28.34,38.9l-3.77,4.7c-1.26,1.56-2.5,3.14-3.79,4.68-2.56,3.09-5.09,6.21-7.68,9.28q-7.75,9.22-15.64,18.36C474,191,463.37,203.11,452.94,215.39q-7.83,9.2-15.71,18.31t-16,18q-8.07,8.92-16.46,17.54c-5.6,5.73-11.28,11.37-17.16,16.8l-4.43,4-4.5,4-4.55,3.9-4.62,3.82q-9.3,7.56-19.25,14.26a210,210,0,0,1-20.54,12.3l-5.35,2.7L319,333.58c-1.83.79-3.64,1.64-5.42,2.59A41.53,41.53,0,0,0,308.24,339.21Z"/><path class="cls-2" d="M587.75,616.58a8.86,8.86,0,0,0-.17,2.78,12.72,12.72,0,0,0,.47,2.56l1.45,5,2.9,9.92c2,6.61,4,13.2,6,19.77,4.16,13.13,8.53,26.19,12.9,39.25,1.09,3.27,2.18,6.53,3.3,9.79s2.22,6.52,3.35,9.77,2.27,6.5,3.41,9.75l3.44,9.75,6.95,19.46a160.88,160.88,0,0,0,7.82,19.17,160.25,160.25,0,0,0-5.14-20.06l-6-19.77-3.05-9.87q-1.51-4.93-3.07-9.86t-3.13-9.85c-1-3.28-2.11-6.55-3.18-9.83-4.28-13.09-8.55-26.18-13-39.2-2.24-6.52-4.57-13-6.92-19.47l-3.59-9.7-1.79-4.85a14,14,0,0,0-1.14-2.34A9.26,9.26,0,0,0,587.75,616.58Z"/><path class="cls-2" d="M575.43,605.38a12.3,12.3,0,0,0,3.2.29,18.74,18.74,0,0,0,3-.36l6-1,6-.82,6-.62a236.5,236.5,0,0,1,24.1-.86,286.75,286.75,0,0,1,48,4.87l5.94,1.16,5.92,1.23,5.91,1.32,5.9,1.39,5.89,1.46,5.87,1.52,5.86,1.58,5.85,1.65q11.69,3.33,23.31,7c7.74,2.44,15.49,4.86,23.51,6.54A208.61,208.61,0,0,0,743,622.45c-7.66-2.73-15.34-5.42-23.09-7.94l-5.83-1.85-5.84-1.79-5.88-1.72-5.9-1.63L690.54,606l-6-1.43-6-1.33-6-1.21-6-1.09-6.07-1-6.09-.84-6.11-.69-6.12-.55-6.14-.39c-2-.1-4.1-.16-6.15-.23l-6.16,0A183.36,183.36,0,0,0,599.15,599l-6.08,1-6,1.19-6,1.4a18,18,0,0,0-2.9,1.06A11.5,11.5,0,0,0,575.43,605.38Z"/><path class="cls-2" d="M521.69,551a6.5,6.5,0,0,0-1.4,1.92,9.31,9.31,0,0,0-.74,2.07l-.95,4.23L517,567.71l-.66,4.3c-.22,1.43-.45,2.86-.65,4.29-.33,2.88-.66,5.76-.95,8.64a248.93,248.93,0,0,0-.53,34.76q.27,4.34.6,8.67t.92,8.65c.39,2.87.83,5.73,1.25,8.6l1.55,8.55c.59,2.83,1.23,5.65,1.85,8.48l2.14,8.41c.8,2.78,1.59,5.56,2.53,8.29a80.51,80.51,0,0,0,3.45,8,82.43,82.43,0,0,0-1.45-8.55c-.5-2.83-1.16-5.61-1.79-8.39L523.59,662l-1.36-8.46L521.1,645c-.28-2.84-.57-5.67-.88-8.51l-.32-4.26-.35-4.26q-.21-4.28-.47-8.53a336,336,0,0,1,.38-34.18l.3-4.26.27-4.27q.39-4.26.73-8.53l.93-8.53.59-4.25a9.24,9.24,0,0,0,0-2.17A6.7,6.7,0,0,0,521.69,551Z"/><path class="cls-2" d="M342.78,631.29a10,10,0,0,0,2.28,1.81,15,15,0,0,0,2.47,1.16l5.05,2,5,2.08,4.93,2.2c6.56,3,13,6.29,19.22,9.81a238.51,238.51,0,0,1,35.51,24.35l4.1,3.49,4,3.58,3.95,3.68,3.87,3.75L437,693l3.71,3.92,3.61,4,3.51,4.1c4.63,5.53,9,11.26,13.08,17.23s7.87,12.09,12.09,18.09a97.76,97.76,0,0,0-9.72-19.63,212.49,212.49,0,0,0-12.48-18.07l-3.42-4.31-3.52-4.22L440.2,690l-3.75-4L432.59,682l-4-3.82-4.06-3.73-4.17-3.6A208.49,208.49,0,0,0,384,646.11,187.16,187.16,0,0,0,364,637L358.85,635l-5.2-1.77C350.12,632.32,346.83,630.51,342.78,631.29Z"/><path class="cls-2" d="M354.79,727.2a12.14,12.14,0,0,0,2.64,1.76,20.07,20.07,0,0,0,2.73,1.23c.92.36,1.85.7,2.76,1.09s1.82.77,2.72,1.2A81.83,81.83,0,0,1,376,738.31a114.7,114.7,0,0,1,18.23,15.14c2.79,2.82,5.47,5.75,8.08,8.77s5.13,6.11,7.59,9.27,4.87,6.37,7.27,9.59l7.17,9.75q3.57,4.89,7.18,9.76t7.22,9.72q3.62,4.86,7.28,9.68l7.29,9.68L467.93,849a223.49,223.49,0,0,0,15.4,18.75,221.44,221.44,0,0,0-13.12-20.41l-13.86-19.88-7-9.91c-2.32-3.3-4.64-6.6-7-9.89s-4.68-6.58-7-9.86-4.71-6.56-7.08-9.83l-7.13-9.81c-2.39-3.27-4.82-6.53-7.34-9.72S408.71,762,406,759s-5.52-6.06-8.48-8.91A103.52,103.52,0,0,0,378,735a85,85,0,0,0-11.1-5.43c-1-.39-1.93-.72-2.9-1.09s-2-.64-2.93-1A17.29,17.29,0,0,0,358,727,11,11,0,0,0,354.79,727.2Z"/><path class="cls-2" d="M682.8,704.39a4.26,4.26,0,0,0,1.44.61,4.44,4.44,0,0,0,1.35.09l2.64-.2,5.28-.2c1.76,0,3.52,0,5.27,0s3.51.1,5.26.13,3.51.2,5.26.27l5.23.45c1.74.23,3.48.44,5.22.65l5.19.84c1.72.35,3.43.7,5.16,1l5.12,1.21q2.53.71,5.08,1.38l5,1.58c1.65.6,3.31,1.18,5,1.77l4.91,2c1.61.73,3.21,1.47,4.87,2.1.81.36,1.63.7,2.47,1s1.69.61,2.57.86a26.27,26.27,0,0,0-2.1-1.72c-.71-.55-1.45-1.07-2.2-1.57-1.52-1-3.1-1.8-4.68-2.66l-4.85-2.37c-1.64-.71-3.29-1.44-4.95-2.15l-5.05-1.91c-1.71-.57-3.42-1.14-5.14-1.69s-3.48-1-5.23-1.42-3.52-.79-5.29-1.17l-5.33-.92c-1.8-.23-3.59-.46-5.38-.67l-5.4-.42c-1.81-.06-3.61-.1-5.42-.14s-3.61.09-5.41.16-3.6.3-5.39.46l-5.35.75-2.65.5a4.47,4.47,0,0,0-1.3.45A3.76,3.76,0,0,0,682.8,704.39Z"/><path class="cls-2" d="M671.07,694.82a3.3,3.3,0,0,0-.91,1,3.59,3.59,0,0,0-.39,1.11l-.38,2.26-.56,4.56c-.11,1.53-.22,3.06-.31,4.59s0,3.07,0,4.61.13,3.07.22,4.6l.46,4.59q.32,2.28.66,4.56l.88,4.52c.36,1.49.72,3,1.09,4.47s.87,2.95,1.31,4.42,1,2.89,1.53,4.34l1.72,4.26c.63,1.4,1.28,2.78,1.92,4.17l2.1,4.07c.76,1.33,1.5,2.66,2.35,3.93.45.62.91,1.24,1.4,1.83a20.79,20.79,0,0,0,1.54,1.72,22.71,22.71,0,0,0-.69-2.21c-.26-.71-.55-1.41-.85-2.1-.53-1.42-1.17-2.77-1.8-4.12l-1.7-4.15c-.52-1.4-1-2.81-1.54-4.2l-1.39-4.25c-.4-1.44-.8-2.87-1.22-4.29s-.72-2.89-1.09-4.32-.63-2.9-1-4.35l-.8-4.38c-.21-1.47-.42-2.94-.64-4.41l-.49-4.42c-.1-1.48-.22-3-.35-4.44s-.14-3-.24-4.45-.07-3-.12-4.46v-4.48l.09-2.25a3.26,3.26,0,0,0-.15-1.14A3.55,3.55,0,0,0,671.07,694.82Z"/><path class="cls-2" d="M504.26,533.31a5.87,5.87,0,0,0,2.07.69,7.43,7.43,0,0,0,1.94,0l3.79-.47,7.58-.71c2.53-.18,5.06-.34,7.58-.54l3.79-.18,3.79-.21a286.57,286.57,0,0,1,30.32.24,291.79,291.79,0,0,1,30.16,3.45l7.49,1.37,7.45,1.6c2.46.61,4.92,1.25,7.43,1.73,1.24.29,2.49.56,3.75.78s2.54.44,3.85.56c-1.13-.65-2.29-1.22-3.46-1.77s-2.35-1.07-3.54-1.56c-2.4-.92-4.86-1.68-7.31-2.47l-7.42-2.11L596,531.86a203.11,203.11,0,0,0-30.57-4.65,207.49,207.49,0,0,0-30.94-.07l-3.86.37-3.84.4c-2.56.35-5.11.73-7.66,1.11l-7.59,1.42-3.77.85A7.58,7.58,0,0,0,506,532,5.76,5.76,0,0,0,504.26,533.31Z"/><path class="cls-2" d="M664,354.59a9.72,9.72,0,0,0,1.39,2.57,15.89,15.89,0,0,0,1.85,2.07l4.05,3.74,8.33,7.23q4.29,3.46,8.61,6.91l4.43,3.29,4.45,3.27a318.92,318.92,0,0,0,37.79,22.85c3.3,1.65,6.59,3.29,9.9,4.9s6.71,3,10.07,4.54,6.81,2.79,10.22,4.18L775.47,424c3.49,1.18,7,2.32,10.47,3.47l10.57,3.13c3.55.93,7.1,1.88,10.69,2.67s7.23,1.32,10.9,1.69c-3.42-1.42-6.88-2.58-10.36-3.69s-6.93-2.29-10.41-3.37L787,424.28c-3.41-1.29-6.8-2.61-10.21-3.88l-10.08-4.16c-3.32-1.49-6.64-3-10-4.45s-6.56-3.14-9.84-4.69-6.47-3.31-9.71-5a402,402,0,0,1-37.35-22.41l-4.48-3.1-4.5-3.08c-2.94-2.14-5.89-4.26-8.85-6.39l-8.7-6.6-4.25-3.44a14.54,14.54,0,0,0-2.3-1.52A10.31,10.31,0,0,0,664,354.59Z"/><path class="cls-2" d="M709.12,354.59a5.94,5.94,0,0,0,2.11-.57,7.1,7.1,0,0,0,1.63-1l2.89-2.47,5.93-4.77c2-1.54,4-3.07,6-4.63l3.07-2.24,3-2.26a289.91,289.91,0,0,1,25.39-16.55,295.85,295.85,0,0,1,27-13.8l7-3,7.09-2.79c2.39-.85,4.78-1.69,7.14-2.67,1.19-.45,2.38-.92,3.56-1.44s2.35-1,3.5-1.66c-1.29.09-2.58.25-3.85.44s-2.55.41-3.81.67c-2.51.57-5,1.29-7.45,2L792,300.13l-7.27,2.59a209.46,209.46,0,0,0-53.83,30l-3,2.43-3,2.46c-1.94,1.7-3.86,3.42-5.78,5.14l-5.54,5.37L711,351a7.37,7.37,0,0,0-1.15,1.58A5.63,5.63,0,0,0,709.12,354.59Z"/><path class="cls-2" d="M534.45,351.63a11.16,11.16,0,0,0,1,3,17.58,17.58,0,0,0,1.54,2.58l3.5,4.83,7.41,9.38c2.61,3,5.22,6,7.86,9l4.14,4.32,4.16,4.3A271.62,271.62,0,0,0,601,419.45q5,3.32,10,6.58,5.14,3.08,10.29,6.12c3.51,1.9,7,3.77,10.55,5.64L642.57,443c3.65,1.59,7.33,3.14,11,4.71l11.17,4.23c3.77,1.25,7.54,2.53,11.35,3.65,3.87,1,7.74,1.87,11.67,2.52-3.63-1.69-7.31-3.11-11-4.49-3.64-1.54-7.33-2.92-11-4.32l-10.86-4.65-10.65-5.09-10.45-5.47q-5.1-3-10.22-5.87-5-3.12-10-6.22c-3.24-2.21-6.5-4.39-9.77-6.57a320.75,320.75,0,0,1-36.4-29.81l-4.2-4.13-4.23-4.1c-2.7-2.85-5.42-5.68-8.15-8.52l-7.87-8.8-3.75-4.57a18.07,18.07,0,0,0-2.08-2.12A11.59,11.59,0,0,0,534.45,351.63Z"/><path class="cls-2" d="M548.26,349.91a14.71,14.71,0,0,0,3.22-1.71,22.41,22.41,0,0,0,2.74-2.18l5.1-4.74,10.44-9.18c3.55-3,7.11-6,10.63-9l5.42-4.35,5.39-4.38c14.52-11.5,29.52-22.39,45.07-32.45s31.54-19.43,48-28l12.41-6.28,12.58-5.94c2.12-.94,4.25-1.86,6.37-2.82l3.17-1.43L722,236c4.25-1.89,8.48-3.81,12.63-6-4.53,1.17-9,2.6-13.4,4.07l-3.28,1.22-3.26,1.26c-2.18.84-4.34,1.72-6.51,2.58l-12.87,5.52-12.71,5.88a471.84,471.84,0,0,0-94.35,60.13l-5.34,4.54-5.33,4.56q-5.19,4.69-10.35,9.45l-10,9.78-4.88,5a23.51,23.51,0,0,0-2.25,2.7A14.73,14.73,0,0,0,548.26,349.91Z"/><path class="cls-2" d="M373.1,829.19a3.17,3.17,0,0,0-1.53-.09,2.92,2.92,0,0,0-1.13.45l-1.93,1.32c-1.25.93-2.48,1.89-3.72,2.85s-2.37,2-3.53,3.1l-1.67,1.66-1.65,1.68a83.09,83.09,0,0,0-18.27,32.51c-.41,1.51-.79,3-1.18,4.53l-.94,4.58c-.24,1.54-.5,3.07-.6,4.62a23.45,23.45,0,0,0,.3,4.72,23.61,23.61,0,0,0,1.75-4.34c.53-1.44.9-2.9,1.29-4.35l1.4-4.3c.53-1.41,1.07-2.81,1.59-4.21a117.4,117.4,0,0,1,8-16,115.58,115.58,0,0,1,10.32-14.57l1.45-1.7,1.43-1.72c1-1.1,2-2.23,3-3.35s2.08-2.16,3.12-3.26l1.63-1.56a2.91,2.91,0,0,0,.66-1A3.69,3.69,0,0,0,373.1,829.19Z"/><path class="cls-2" d="M340.92,631.52a17.12,17.12,0,0,0-2.54,3,28,28,0,0,0-1.93,3.24l-3.37,6.73L326.47,658c-2.14,4.53-4.29,9.07-6.4,13.62l-3.1,6.85-3.08,6.87c-8.07,18.38-15.56,37-22.67,55.77s-13.67,37.74-19.76,56.85L267,812.3l-4.32,14.41c-.69,2.41-1.41,4.81-2.08,7.23l-1,3.62-1,3.63c-1.21,4.87-2.37,9.76-3.27,14.71,1.94-4.65,3.62-9.37,5.26-14.11l1.24-3.55,1.18-3.56c.81-2.37,1.56-4.75,2.34-7.13l4.79-14.23,4.93-14.18q9.94-28.3,20.76-56.3c7.17-18.67,14.73-37.19,22.46-55.64l2.92-6.91,2.89-6.92q3-6.9,5.87-13.81l5.95-13.79,3-6.86a25.88,25.88,0,0,0,1.28-3.55A16.94,16.94,0,0,0,340.92,631.52Z"/><path class="cls-2" d="M332.16,538.21a8.39,8.39,0,0,0-2.56,1,12.62,12.62,0,0,0-2,1.58c-1.21,1.2-2.42,2.4-3.58,3.64-2.35,2.45-4.61,5-6.86,7.51q-6.66,7.66-12.8,15.75c-2.05,2.69-4.05,5.41-6,8.15L295.36,580l-2.88,4.17q-2.88,4.19-5.63,8.44c-1.86,2.83-3.66,5.69-5.45,8.55A327.61,327.61,0,0,0,262,636.81c-2.82,6.16-5.39,12.45-7.59,18.88-.57,1.59-1.07,3.22-1.55,4.85s-.89,3.29-1.26,5l-.27,1.24c-.08.42-.14.85-.21,1.27-.14.84-.26,1.68-.37,2.52a24.15,24.15,0,0,0-.23,2.55c0,.85-.08,1.7-.09,2.55.29-.81.55-1.62.8-2.42s.47-1.61.76-2.4c.57-1.59,1-3.19,1.62-4.75s1.07-3.16,1.68-4.71l.86-2.35c.27-.79.61-1.55.91-2.33,2.46-6.2,5.33-12.24,8.37-18.19s6.34-11.78,9.7-17.56c.84-1.45,1.68-2.89,2.55-4.32s1.71-2.88,2.59-4.3l2.64-4.27,2.66-4.26c7.18-11.3,14.76-22.36,22.59-33.23,3.92-5.43,7.87-10.84,11.94-16.16,2-2.65,4.08-5.3,6.22-7.86,1.05-1.3,2.15-2.55,3.24-3.8a12.06,12.06,0,0,0,1.49-2A9.34,9.34,0,0,0,332.16,538.21Z"/><path class="cls-2" d="M379.24,851.91a3.67,3.67,0,0,0,.56,1.47,3,3,0,0,0,.86.87l1.95,1.26c1.26.9,2.53,1.78,3.79,2.66s2.47,1.86,3.71,2.76l1.81,1.43,1.83,1.4A141.87,141.87,0,0,1,407.43,876a145.61,145.61,0,0,1,12,14c.89,1.25,1.81,2.5,2.72,3.75l2.57,3.86c.8,1.32,1.59,2.66,2.51,3.93a25.85,25.85,0,0,0,3,3.76,23.82,23.82,0,0,0-1.1-4.7c-.54-1.5-1.23-2.93-1.91-4.37L425,892c-.79-1.38-1.58-2.77-2.39-4.14A93.61,93.61,0,0,0,411,872.59a95.26,95.26,0,0,0-14.4-12.66l-2-1.33-2-1.31c-1.38-.81-2.77-1.6-4.16-2.39s-2.85-1.44-4.28-2.13l-2.19-1a3,3,0,0,0-1.21-.25A3.37,3.37,0,0,0,379.24,851.91Z"/><path class="cls-2" d="M211.55,518a8,8,0,0,0-2.49-.7,11.34,11.34,0,0,0-2.4,0l-4.74.47-9.46,1.14c-3.14.46-6.29.92-9.43,1.42l-4.69.84-4.69.87a373.18,373.18,0,0,0-36.94,9.48q-4.54,1.46-9.08,2.93t-9,3.18c-3,1.12-5.94,2.27-8.9,3.42l-8.81,3.63c-2.92,1.27-5.81,2.57-8.72,3.85l-8.62,4c-2.84,1.41-5.69,2.8-8.47,4.33S69.64,560.13,67,562c3.09-.9,6-2,9-3.23s5.85-2.39,8.74-3.64l8.77-3.55c2.94-1.13,5.89-2.24,8.82-3.38l8.88-3.22c3-1,6-2,8.93-3.06s6-1.94,9-2.92,6-1.85,9-2.78c12.05-3.62,24.24-6.72,36.51-9.52l4.61-1,4.6-1c3.08-.63,6.16-1.3,9.24-2l9.28-1.83L207,520a11.27,11.27,0,0,0,2.29-.67A8.16,8.16,0,0,0,211.55,518Z"/><path class="cls-2" d="M253.42,452.61a3.92,3.92,0,0,0-1.36-1.07,4.07,4.07,0,0,0-1.38-.38l-2.78-.26-5.58-.36c-1.86-.06-3.72-.12-5.59-.15h-2.79l-2.8,0a186.9,186.9,0,0,0-22.27,2.15A182.75,182.75,0,0,0,187,457.35l-5.35,1.59-5.31,1.72c-1.75.61-3.51,1.2-5.23,1.94a33.69,33.69,0,0,0-5,2.7,33.78,33.78,0,0,0,5.58-.71c1.83-.31,3.61-.78,5.39-1.22l5.37-1.21,5.4-1.1q10.8-2.1,21.67-3.57c7.24-1,14.52-1.69,21.81-2.27l2.74-.2,2.74-.23c1.82-.11,3.65-.26,5.48-.39s3.67-.22,5.5-.35l2.76-.12a4.07,4.07,0,0,0,1.38-.32A4.22,4.22,0,0,0,253.42,452.61Z"/><path class="cls-2" d="M191.22,549.54a4.53,4.53,0,0,0,0,1.87,4.83,4.83,0,0,0,.55,1.49l1.52,2.68,2.87,5.46c.9,1.85,1.8,3.69,2.72,5.52l1.29,2.79,1.31,2.77a210.41,210.41,0,0,1,8.9,22.84,212.09,212.09,0,0,1,6.13,23.78l1.09,6.06.87,6.11c.22,2,.41,4.09.76,6.14.14,1,.29,2.05.49,3.08a28.73,28.73,0,0,0,.72,3.09,30.61,30.61,0,0,0,.55-3.13c.15-1,.25-2.09.32-3.14.09-2.09,0-4.18,0-6.27l-.38-6.28-.62-6.26a143.5,143.5,0,0,0-5.18-24.65,145.22,145.22,0,0,0-9.32-23.44l-1.48-2.78-1.52-2.77c-1.08-1.8-2.18-3.59-3.28-5.38s-2.35-3.49-3.54-5.21l-1.87-2.53a5.11,5.11,0,0,0-1.16-1.11A4.21,4.21,0,0,0,191.22,549.54Z"/><path class="cls-2" d="M456.26,216.36a5.93,5.93,0,0,0,.63-2.08,7.25,7.25,0,0,0,0-1.92l-.55-3.73-.86-7.48c-.22-2.5-.43-5-.68-7.49l-.24-3.75-.26-3.74a260.92,260.92,0,0,1-.11-30,265.38,265.38,0,0,1,3.34-29.85l1.37-7.4,1.63-7.36c.62-2.43,1.27-4.86,1.77-7.34.29-1.23.57-2.46.8-3.71s.46-2.51.59-3.8c-.66,1.1-1.24,2.24-1.79,3.4s-1.09,2.31-1.59,3.49c-.93,2.37-1.71,4.79-2.51,7.21l-2.14,7.34-1.87,7.42a189.59,189.59,0,0,0-4.54,30.29,192.56,192.56,0,0,0,.28,30.66l.43,3.81.46,3.8c.39,2.53.82,5.05,1.24,7.56l1.58,7.5.93,3.71a8.06,8.06,0,0,0,.72,1.8A5.82,5.82,0,0,0,456.26,216.36Z"/><path class="cls-2" d="M482,186.25a3.23,3.23,0,0,0,1,1.08,2.66,2.66,0,0,0,1.06.4l2.14.28c1.43.15,2.87.27,4.31.4s2.89.14,4.33.18H497l2.17,0a103.74,103.74,0,0,0,17.18-2.24,102.71,102.71,0,0,0,16.56-5c1.33-.55,2.65-1.12,4-1.68l3.91-1.81c1.29-.65,2.58-1.28,3.8-2.05A19.8,19.8,0,0,0,548,173a20.3,20.3,0,0,0-4.28.87c-1.38.35-2.69.85-4,1.33l-4,1.3c-1.35.4-2.7.78-4,1.19q-8.1,2.25-16.31,3.8c-5.47,1-11,1.75-16.54,2.32l-2.08.19-2.09.23c-1.39.1-2.78.24-4.18.37s-2.8.18-4.2.3l-2.11.1a2.6,2.6,0,0,0-1.07.31A3.45,3.45,0,0,0,482,186.25Z"/><path class="cls-2" d="M525.53,131.69a2.81,2.81,0,0,0,.94.83,1.37,1.37,0,0,0,.78.17l1.45-.17,2.88-.42c1-.18,1.91-.34,2.86-.55l1.42-.32,1.41-.36a86.94,86.94,0,0,0,11-3.9,85.24,85.24,0,0,0,10.34-5.28c.83-.5,1.65-1,2.47-1.52l2.44-1.58a20.47,20.47,0,0,0,2.34-1.73,10.07,10.07,0,0,0,2-2.34,10.8,10.8,0,0,0-3,.53,19.92,19.92,0,0,0-2.66,1.06l-2.62,1.1-2.63,1.06c-3.51,1.4-7,2.76-10.52,4.12s-7,2.61-10.55,3.93l-1.32.49-1.31.53c-.88.33-1.76.69-2.63,1l-2.64,1.08-1.33.53a1.38,1.38,0,0,0-.6.52A3,3,0,0,0,525.53,131.69Z"/><path class="cls-2" d="M505.36,154.42a3,3,0,0,0,.88-.94,1.49,1.49,0,0,0,.22-.8l-.08-1.52c0-1-.08-2-.12-3s-.06-2-.13-3l-.06-1.5-.09-1.5c-.24-4-.53-8-.66-12s-.27-8-.32-12c0-1,0-2,0-3l0-3a22.06,22.06,0,0,0,0-3,11.79,11.79,0,0,0-.62-3.15,11.69,11.69,0,0,0-1.45,2.89,24.34,24.34,0,0,0-.71,3l-.54,3c-.15,1-.32,2-.46,3.06a87.94,87.94,0,0,0-.82,12.35,89.61,89.61,0,0,0,.85,12.35l.26,1.53.28,1.52c.21,1,.45,2,.69,3s.54,2,.82,3l.46,1.48a1.64,1.64,0,0,0,.48.7A3,3,0,0,0,505.36,154.42Z"/><path class="cls-2" d="M395.54,280.53a4.32,4.32,0,0,0,.73-1.62,4.13,4.13,0,0,0,.06-1.48L396,274.6c-.19-1.9-.4-3.79-.61-5.68s-.32-3.8-.52-5.68l-.2-2.84-.24-2.84c-.54-7.56-.87-15.14-.76-22.72s.49-15.16,1.22-22.73l.62-5.68.78-5.66c.32-1.88.65-3.76.83-5.67a36.17,36.17,0,0,0,.36-5.83,34.91,34.91,0,0,0-2.38,5.36c-.62,1.84-1.09,3.72-1.58,5.59l-1.29,5.66-1.12,5.71a157.44,157.44,0,0,0-2.39,23.15,161.62,161.62,0,0,0,.95,23.28l.4,2.88.43,2.88c.34,1.92.72,3.82,1.08,5.73s.87,3.78,1.33,5.66l.75,2.81a4.39,4.39,0,0,0,.64,1.35A4.08,4.08,0,0,0,395.54,280.53Z"/><path class="cls-2" d="M467.27,494.83a3.26,3.26,0,0,0-1.37.7,2.85,2.85,0,0,0-.75,1l-1,2.11c-.63,1.43-1.22,2.88-1.83,4.33s-1.08,2.94-1.59,4.43-.89,3-1.32,4.52a93.73,93.73,0,0,0-2.75,18.63,95.57,95.57,0,0,0,.92,18.76c.25,1.55.51,3.09.79,4.62l1,4.58c.37,1.51.72,3,1.24,4.51a23.58,23.58,0,0,0,2,4.28,23.89,23.89,0,0,0,0-4.71c-.07-1.54-.29-3-.49-4.56l-.45-4.54-.28-4.55a153.67,153.67,0,0,1,.22-18.09,143.51,143.51,0,0,1,2.47-17.87l.47-2.21.44-2.22c.36-1.47.67-2.95,1-4.42l1.13-4.42.63-2.19a2.81,2.81,0,0,0,.08-1.2A3.51,3.51,0,0,0,467.27,494.83Z"/><path class="cls-2" d="M452,478a3.32,3.32,0,0,0,1.32.5,2.15,2.15,0,0,0,1-.1l1.77-.67,3.57-1.21c1.19-.38,2.39-.73,3.57-1.13.59-.19,1.2-.35,1.79-.53l1.78-.55c4.77-1.42,9.57-2.68,14.47-3.63s9.83-1.74,14.83-2.38l3.75-.46,3.78-.38a35.14,35.14,0,0,0,3.79-.42,17.11,17.11,0,0,0,3.81-1,16.9,16.9,0,0,0-3.82-1.06,35.47,35.47,0,0,0-3.85-.32l-3.85-.12q-1.93,0-3.87,0a97,97,0,0,0-15.47,1.32,84.06,84.06,0,0,0-15.09,4c-1.21.48-2.42,1-3.61,1.49-.6.27-1.18.56-1.77.84s-1.17.56-1.75.87c-1.14.63-2.28,1.25-3.4,1.9l-1.66,1a2.12,2.12,0,0,0-.7.75A2.92,2.92,0,0,0,452,478Z"/><path class="cls-2" d="M156.54,185c2.4,4.27,5,8.4,7.83,12.41.71,1,1.4,2,2.12,3l2.19,2.94c1.46,2,3,3.87,4.52,5.78,6.15,7.6,12.59,15,19.2,22.18,13.22,14.4,27.17,28.11,41.35,41.53s28.63,26.51,42.87,39.8c7.13,6.64,14.16,13.36,21.23,20.09l21.22,20.13,42.38,40.3q21.17,20.17,42.15,40.53l10.45,10.21,5.22,5.11,5.2,5.14c3.46,3.42,6.95,6.82,10.4,10.27l10.34,10.32c3.45,3.44,6.86,6.91,10.29,10.37l5.14,5.19,5.11,5.23L475.94,506l10.12,10.54,2.53,2.63,2.51,2.66,5,5.31c3.34,3.54,6.69,7.07,10,10.65l9.94,10.7,10,10.71q20.1,21.32,41.08,41.77l5.25,5.11,2.62,2.55,2.65,2.53c3.53,3.37,7.05,6.75,10.6,10.1l10.69,10,10.77,9.92q21.6,19.75,43.5,39.15L697,719.09l10.93,9.71,5.45,4.87,2.73,2.43,2.67,2.45c7.07,6.65,14.06,13.47,21.06,20.25,14,13.58,27.9,27.24,41.95,40.77l5.26,5.07,5.28,5.06q5.28,5.06,10.59,10.09t10.67,10c1.77,1.67,3.57,3.32,5.37,5s3.62,3.27,5.44,4.89c-6.9-6.9-13.68-13.9-20.54-20.83l-10.27-10.41L783.28,798q-20.61-20.76-41.44-41.3C734.9,749.88,728,743,720.92,736.25l-2.69-2.53-2.71-2.45-5.42-4.91-10.84-9.82L655.79,677.4q-21.7-19.59-43.18-39.41l-10.68-10-10.61-10c-3.53-3.35-7-6.74-10.53-10.11l-2.63-2.54-2.61-2.55-5.21-5.12q-20.8-20.49-40.78-41.79L509.7,534.4c-3.3-3.59-6.66-7.13-10-10.69l-5-5.32-2.51-2.67-2.53-2.64L479.5,502.51,469.3,492l-5.11-5.25-5.14-5.2c-3.43-3.47-6.84-7-10.29-10.41q-20.64-20.75-41.67-41.11t-42.21-40.53q-21.22-20.13-42.56-40.15c-14.23-13.34-28.35-26.75-42.74-40S250.66,283.22,236.36,270,208,243.31,194.68,229.14c-6.65-7.09-13.13-14.33-19.35-21.8L166,196.13C162.86,192.41,159.79,188.63,156.54,185Z"/></g></g></svg>